<svg width="64" height="64" viewBox="0 0 64 64" fill="none" xmlns="http://www.w3.org/2000/svg">
<rect opacity="0.6" width="64" height="64" rx="12" fill="url(#paint0_linear_14002_26752)"/>
<g clip-path="url(#clip0_14002_26752)">
<path d="M51.089 10.2456H11.4994C10.7986 10.2456 10.2305 10.8137 10.2305 11.5146V17.4867C10.2305 18.1876 10.7986 18.7557 11.4994 18.7557H51.089C51.7898 18.7557 52.358 18.1876 52.358 17.4867V11.5146C52.358 10.8137 51.7898 10.2456 51.089 10.2456Z" fill="url(#paint1_linear_14002_26752)"/>
<path d="M12.5665 53.6723C10.7336 53.6723 9.34375 52.1214 9.34375 50.0668V12.1994C9.34375 10.7089 10.8746 9.35938 12.5665 9.35938H50.4339C52.0856 9.35938 53.6567 10.7391 53.6567 12.1994V37.2262C53.6567 37.6391 53.3143 37.9815 52.9014 37.9815C52.4884 37.9815 52.146 37.6391 52.146 37.2262V20.1053C52.146 19.7326 51.8439 19.4305 51.4713 19.4305H11.5292C11.3479 19.4305 11.1767 19.501 11.0558 19.6319C10.9249 19.7628 10.8544 19.924 10.8544 20.1053V50.0668C10.8544 51.3056 11.5594 52.1616 12.5665 52.1616H37.2105C37.6235 52.1616 37.9659 52.5041 37.9659 52.917C37.9659 53.3299 37.6235 53.6723 37.2105 53.6723H12.5665ZM12.5665 10.87C11.6299 10.87 10.935 11.6052 10.8645 12.1088V17.2451C10.8645 17.6177 11.1566 17.9198 11.5292 17.9198H51.4813C51.854 17.9198 52.1561 17.6177 52.1561 17.2451V12.1994C52.1561 12.1994 52.1561 12.1088 52.1561 12.0987C52.0856 11.6052 51.3806 10.8801 50.4541 10.8801H12.5665V10.87Z" fill="url(#paint2_linear_14002_26752)"/>
<path d="M15.8097 15.4625C15.2256 15.4625 14.7422 14.9791 14.7422 14.3949C14.7422 13.8108 15.2155 13.3274 15.8097 13.3274C16.4039 13.3274 16.8773 13.8108 16.8773 14.3949C16.8773 14.9791 16.4039 15.4625 15.8097 15.4625Z" fill="#F8F8FF"/>
<path d="M20.8849 15.4625C20.3008 15.4625 19.8174 14.9791 19.8174 14.3949C19.8174 13.8108 20.3008 13.3274 20.8849 13.3274C21.469 13.3274 21.9525 13.8108 21.9525 14.3949C21.9525 14.9791 21.4791 15.4625 20.8849 15.4625Z" fill="#F8F8FF"/>
<path d="M25.9709 15.4625C25.3867 15.4625 24.9033 14.9791 24.9033 14.3949C24.9033 13.8108 25.3867 13.3274 25.9709 13.3274C26.555 13.3274 27.0384 13.8108 27.0384 14.3949C27.0384 14.9791 26.5651 15.4625 25.9709 15.4625Z" fill="#F8F8FF"/>
<rect x="10.3262" y="18.3357" width="42.3129" height="34.3366" rx="3" fill="white" stroke="url(#paint3_linear_14002_26752)" stroke-width="2"/>
<path d="M40.8438 31.75H38.6875V31.0312C38.6875 30.65 38.536 30.2844 38.2665 30.0148C37.9969 29.7452 37.6312 29.5938 37.25 29.5938H25.75C25.3688 29.5938 25.0031 29.7452 24.7335 30.0148C24.464 30.2844 24.3125 30.65 24.3125 31.0312V31.75H22.1562C21.775 31.75 21.4094 31.9015 21.1398 32.171C20.8702 32.4406 20.7188 32.8063 20.7188 33.1875V34.625C20.7188 35.5781 21.0974 36.4922 21.7713 37.1662C22.105 37.4999 22.5012 37.7646 22.9372 37.9452C23.3732 38.1258 23.8406 38.2188 24.3125 38.2188H24.6404C25.0638 39.5605 25.8711 40.7488 26.9624 41.6367C28.0538 42.5246 29.3814 43.0733 30.7812 43.215V45.4062H28.625C28.4344 45.4062 28.2516 45.482 28.1168 45.6168C27.982 45.7516 27.9062 45.9344 27.9062 46.125C27.9062 46.3156 27.982 46.4984 28.1168 46.6332C28.2516 46.768 28.4344 46.8438 28.625 46.8438H34.375C34.5656 46.8438 34.7484 46.768 34.8832 46.6332C35.018 46.4984 35.0938 46.3156 35.0938 46.125C35.0938 45.9344 35.018 45.7516 34.8832 45.6168C34.7484 45.482 34.5656 45.4062 34.375 45.4062H32.2188V43.2123C35.0884 42.9221 37.4692 40.9087 38.3353 38.2188H38.6875C39.6406 38.2188 40.5547 37.8401 41.2287 37.1662C41.9026 36.4922 42.2812 35.5781 42.2812 34.625V33.1875C42.2812 32.8063 42.1298 32.4406 41.8602 32.171C41.5906 31.9015 41.225 31.75 40.8438 31.75ZM24.3125 36.7812C23.7406 36.7812 23.1922 36.5541 22.7878 36.1497C22.3834 35.7453 22.1562 35.1969 22.1562 34.625V33.1875H24.3125V36.0625C24.3125 36.3021 24.3242 36.5417 24.3475 36.7812H24.3125ZM40.8438 34.625C40.8438 35.1969 40.6166 35.7453 40.2122 36.1497C39.8078 36.5541 39.2594 36.7812 38.6875 36.7812H38.6426C38.6721 36.5157 38.6871 36.2488 38.6875 35.9816V33.1875H40.8438V34.625Z" fill="#637CF7"/>
<path d="M35.2289 35.8425C35.2289 33.72 33.5089 32 31.3864 32C29.264 32 27.5439 33.72 27.5439 35.8425C27.5439 37.9649 29.264 39.685 31.3864 39.685C33.5089 39.685 35.2289 37.9649 35.2289 35.8425ZM33.2179 35.5821L32.6005 36.1719C32.5512 36.2183 32.5295 36.2873 32.5413 36.3544L32.6942 37.1947C32.7416 37.455 32.4674 37.6543 32.2346 37.529L31.4831 37.1246C31.4229 37.0921 31.3509 37.0921 31.2918 37.1246L30.5392 37.529C30.3065 37.6543 30.0323 37.455 30.0796 37.1947L30.2325 36.3544C30.2443 36.2873 30.2226 36.2192 30.1733 36.1719L29.5559 35.5821C29.3646 35.3997 29.4691 35.0771 29.7315 35.0416L30.5777 34.9272C30.6448 34.9184 30.703 34.8759 30.7325 34.8148L31.1034 34.0455C31.2178 33.8068 31.5571 33.8068 31.6715 34.0455L32.0423 34.8148C32.0719 34.8759 32.1301 34.9184 32.1971 34.9272L33.0434 35.0416C33.3057 35.0771 33.4102 35.3997 33.2189 35.5821H33.2179Z" fill="#EEEFFE"/>
<path d="M31.3539 26.5776C31.7961 26.5776 32.1542 26.2195 32.1542 25.7773V23.8002C32.1542 23.3581 31.7961 23 31.3539 23C30.9118 23 30.5537 23.3581 30.5537 23.8002V25.7764C30.5537 26.2185 30.9118 26.5766 31.3539 26.5766V26.5776Z" fill="#4254AC"/>
<path d="M26.0958 27.4004C26.2435 27.6567 26.5135 27.8005 26.7894 27.8005C26.9254 27.8005 27.0633 27.7663 27.1885 27.6929C27.5711 27.4718 27.7021 26.9827 27.482 26.5992L26.494 24.8882C26.2729 24.5047 25.7828 24.3736 25.4002 24.5947C25.0177 24.8158 24.8866 25.3049 25.1068 25.6884L26.0948 27.4004H26.0958Z" fill="#4254AC"/>
<path d="M35.5191 27.6929C35.6453 27.7663 35.7822 27.8005 35.9182 27.8005C36.1951 27.8005 36.4641 27.6567 36.6118 27.4004L37.5999 25.6884C37.821 25.3059 37.6899 24.8158 37.3064 24.5947C36.9229 24.3736 36.4338 24.5047 36.2127 24.8882L35.2246 26.5992C35.0035 26.9817 35.1346 27.4718 35.5181 27.6929H35.5191Z" fill="#4254AC"/>
</g>
<defs>
<linearGradient id="paint0_linear_14002_26752" x1="-8.5" y1="-9.5" x2="75" y2="79" gradientUnits="userSpaceOnUse">
<stop stop-color="#F8F9FF"/>
<stop offset="1" stop-color="#DBDEFE"/>
</linearGradient>
<linearGradient id="paint1_linear_14002_26752" x1="10.2305" y1="14.5007" x2="58.5413" y2="12.4833" gradientUnits="userSpaceOnUse">
<stop stop-color="#7088FF"/>
<stop offset="1" stop-color="#3A4991"/>
</linearGradient>
<linearGradient id="paint2_linear_14002_26752" x1="9.34375" y1="31.5158" x2="60.2457" y2="31.0865" gradientUnits="userSpaceOnUse">
<stop stop-color="#7088FF"/>
<stop offset="1" stop-color="#3A4991"/>
</linearGradient>
<linearGradient id="paint3_linear_14002_26752" x1="9.32617" y1="35.504" x2="60.2264" y2="34.9804" gradientUnits="userSpaceOnUse">
<stop stop-color="#7088FF"/>
<stop offset="1" stop-color="#3A4991"/>
</linearGradient>
<clipPath id="clip0_14002_26752">
<rect width="44.3129" height="44.3129" fill="white" transform="translate(9.34375 9.35938)"/>
</clipPath>
</defs>
</svg>
