<svg width="64" height="64" viewBox="0 0 64 64" fill="none" xmlns="http://www.w3.org/2000/svg">
<rect opacity="0.6" width="64" height="64" rx="12" fill="url(#paint0_linear_14002_27363)"/>
<g clip-path="url(#clip0_14002_27363)">
<path d="M51.089 10.2456H11.4994C10.7986 10.2456 10.2305 10.8137 10.2305 11.5146V17.4867C10.2305 18.1876 10.7986 18.7557 11.4994 18.7557H51.089C51.7898 18.7557 52.358 18.1876 52.358 17.4867V11.5146C52.358 10.8137 51.7898 10.2456 51.089 10.2456Z" fill="url(#paint1_linear_14002_27363)"/>
<path d="M12.5665 53.6723C10.7336 53.6723 9.34375 52.1214 9.34375 50.0668V12.1994C9.34375 10.7089 10.8746 9.35938 12.5665 9.35938H50.4339C52.0856 9.35938 53.6567 10.7391 53.6567 12.1994V37.2262C53.6567 37.6391 53.3143 37.9815 52.9014 37.9815C52.4884 37.9815 52.146 37.6391 52.146 37.2262V20.1053C52.146 19.7326 51.8439 19.4305 51.4713 19.4305H11.5292C11.3479 19.4305 11.1767 19.501 11.0558 19.6319C10.9249 19.7628 10.8544 19.924 10.8544 20.1053V50.0668C10.8544 51.3056 11.5594 52.1616 12.5665 52.1616H37.2105C37.6235 52.1616 37.9659 52.5041 37.9659 52.917C37.9659 53.3299 37.6235 53.6723 37.2105 53.6723H12.5665ZM12.5665 10.87C11.6299 10.87 10.935 11.6052 10.8645 12.1088V17.2451C10.8645 17.6177 11.1566 17.9198 11.5292 17.9198H51.4813C51.854 17.9198 52.1561 17.6177 52.1561 17.2451V12.1994C52.1561 12.1994 52.1561 12.1088 52.1561 12.0987C52.0856 11.6052 51.3806 10.8801 50.4541 10.8801H12.5665V10.87Z" fill="url(#paint2_linear_14002_27363)"/>
<path d="M15.8097 15.4625C15.2256 15.4625 14.7422 14.9791 14.7422 14.3949C14.7422 13.8108 15.2155 13.3274 15.8097 13.3274C16.4039 13.3274 16.8773 13.8108 16.8773 14.3949C16.8773 14.9791 16.4039 15.4625 15.8097 15.4625Z" fill="#F8F8FF"/>
<path d="M20.8849 15.4625C20.3008 15.4625 19.8174 14.9791 19.8174 14.3949C19.8174 13.8108 20.3008 13.3274 20.8849 13.3274C21.469 13.3274 21.9525 13.8108 21.9525 14.3949C21.9525 14.9791 21.4791 15.4625 20.8849 15.4625Z" fill="#F8F8FF"/>
<path d="M25.9709 15.4625C25.3867 15.4625 24.9033 14.9791 24.9033 14.3949C24.9033 13.8108 25.3867 13.3274 25.9709 13.3274C26.555 13.3274 27.0384 13.8108 27.0384 14.3949C27.0384 14.9791 26.5651 15.4625 25.9709 15.4625Z" fill="#F8F8FF"/>
<rect x="10.3262" y="18.3357" width="42.3129" height="34.3366" rx="3" fill="white" stroke="url(#paint3_linear_14002_27363)" stroke-width="2"/>
<g clip-path="url(#clip1_14002_27363)">
<path d="M24.2451 34H18.1125C17.4976 34 17 34.4962 17 35.1092V45.8231C17 46.4361 17.4988 46.9323 18.1125 46.9323H24.2451C24.86 46.9323 25.3576 46.4361 25.3576 45.8231V35.1092C25.3576 34.4962 24.86 34 24.2451 34ZM21.1788 45.3246C20.6754 45.3246 20.2674 44.9178 20.2674 44.416C20.2674 43.9141 20.6754 43.5073 21.1788 43.5073C21.6822 43.5073 22.0902 43.9141 22.0902 44.416C22.0902 44.9178 21.6822 45.3246 21.1788 45.3246ZM23.6429 41.9615C23.6429 42.138 23.4992 42.2812 23.3222 42.2812H19.0342C18.8572 42.2812 18.7136 42.138 18.7136 41.9615V41.353C18.7136 41.1766 18.8572 41.0333 19.0342 41.0333H23.3222C23.4992 41.0333 23.6429 41.1766 23.6429 41.353V41.9615ZM23.6429 39.4876C23.6429 39.664 23.4992 39.8073 23.3222 39.8073H19.0342C18.8572 39.8073 18.7136 39.664 18.7136 39.4876V38.8791C18.7136 38.7026 18.8572 38.5594 19.0342 38.5594H23.3222C23.4992 38.5594 23.6429 38.7026 23.6429 38.8791V39.4876ZM23.6429 37.0136C23.6429 37.1901 23.4992 37.3333 23.3222 37.3333H19.0342C18.8572 37.3333 18.7136 37.1901 18.7136 37.0136V36.4052C18.7136 36.2287 18.8572 36.0855 19.0342 36.0855H23.3222C23.4992 36.0855 23.6429 36.2287 23.6429 36.4052V37.0136Z" fill="#4254AC"/>
<path d="M34.0654 34H27.9328C27.318 34 26.8203 34.4962 26.8203 35.1092V45.8231C26.8203 46.4361 27.3191 46.9323 27.9328 46.9323H34.0654C34.6803 46.9323 35.1779 46.4361 35.1779 45.8231V35.1092C35.1779 34.4962 34.6803 34 34.0654 34ZM31.0003 45.3246C30.4969 45.3246 30.0889 44.9178 30.0889 44.416C30.0889 43.9141 30.4969 43.5073 31.0003 43.5073C31.5036 43.5073 31.9116 43.9141 31.9116 44.416C31.9116 44.9178 31.5036 45.3246 31.0003 45.3246ZM33.4643 41.9615C33.4643 42.138 33.3207 42.2812 33.1437 42.2812H28.8557C28.6787 42.2812 28.535 42.138 28.535 41.9615V41.353C28.535 41.1766 28.6787 41.0333 28.8557 41.0333H33.1437C33.3207 41.0333 33.4643 41.1766 33.4643 41.353V41.9615ZM33.4643 39.4876C33.4643 39.664 33.3207 39.8073 33.1437 39.8073H28.8557C28.6787 39.8073 28.535 39.664 28.535 39.4876V38.8791C28.535 38.7026 28.6787 38.5594 28.8557 38.5594H33.1437C33.3207 38.5594 33.4643 38.7026 33.4643 38.8791V39.4876ZM33.4643 37.0136C33.4643 37.1901 33.3207 37.3333 33.1437 37.3333H28.8557C28.6787 37.3333 28.535 37.1901 28.535 37.0136V36.4052C28.535 36.2287 28.6787 36.0855 28.8557 36.0855H33.1437C33.3207 36.0855 33.4643 36.2287 33.4643 36.4052V37.0136Z" fill="#637CF7"/>
<path d="M43.8877 34H37.7551C37.1402 34 36.6426 34.4962 36.6426 35.1092V45.8231C36.6426 46.4361 37.1414 46.9323 37.7551 46.9323H43.8877C44.5025 46.9323 45.0002 46.4361 45.0002 45.8231V35.1092C45.0002 34.4962 44.5025 34 43.8877 34ZM40.8214 45.3246C40.318 45.3246 39.91 44.9178 39.91 44.416C39.91 43.9141 40.318 43.5073 40.8214 43.5073C41.3248 43.5073 41.7328 43.9141 41.7328 44.416C41.7328 44.9178 41.3248 45.3246 40.8214 45.3246ZM43.2866 41.9615C43.2866 42.138 43.1429 42.2812 42.9659 42.2812H38.678C38.501 42.2812 38.3573 42.138 38.3573 41.9615V41.353C38.3573 41.1766 38.501 41.0333 38.678 41.0333H42.9659C43.1429 41.0333 43.2866 41.1766 43.2866 41.353V41.9615ZM43.2866 39.4876C43.2866 39.664 43.1429 39.8073 42.9659 39.8073H38.678C38.501 39.8073 38.3573 39.664 38.3573 39.4876V38.8791C38.3573 38.7026 38.501 38.5594 38.678 38.5594H42.9659C43.1429 38.5594 43.2866 38.7026 43.2866 38.8791V39.4876ZM43.2866 37.0136C43.2866 37.1901 43.1429 37.3333 42.9659 37.3333H38.678C38.501 37.3333 38.3573 37.1901 38.3573 37.0136V36.4052C38.3573 36.2287 38.501 36.0855 38.678 36.0855H42.9659C43.1429 36.0855 43.2866 36.2287 43.2866 36.4052V37.0136Z" fill="#B1BDF7"/>
</g>
<path d="M24.504 24.988H25.435L26.968 27.641H27.024L28.557 24.988H29.495V30H28.557V27.529L28.613 26.689H28.557L27.283 28.936H26.716L25.435 26.689H25.379L25.435 27.529V30H24.504V24.988ZM34.8196 29.195C34.5723 29.4937 34.2806 29.7223 33.9446 29.881C33.6086 30.035 33.2329 30.112 32.8176 30.112C32.4443 30.112 32.0966 30.0443 31.7746 29.909C31.4573 29.7737 31.1819 29.5893 30.9486 29.356C30.7153 29.1227 30.5309 28.8473 30.3956 28.53C30.2603 28.208 30.1926 27.8627 30.1926 27.494C30.1926 27.1253 30.2603 26.7823 30.3956 26.465C30.5309 26.143 30.7153 25.8653 30.9486 25.632C31.1819 25.3987 31.4573 25.2143 31.7746 25.079C32.0966 24.9437 32.4443 24.876 32.8176 24.876C33.2189 24.876 33.5713 24.946 33.8746 25.086C34.1826 25.226 34.4556 25.429 34.6936 25.695L34.0286 26.339C33.8793 26.1663 33.7066 26.0287 33.5106 25.926C33.3193 25.8233 33.0906 25.772 32.8246 25.772C32.5913 25.772 32.3719 25.814 32.1666 25.898C31.9613 25.9773 31.7816 26.0917 31.6276 26.241C31.4783 26.3903 31.3593 26.5723 31.2706 26.787C31.1819 26.997 31.1376 27.2327 31.1376 27.494C31.1376 27.7553 31.1819 27.9933 31.2706 28.208C31.3593 28.418 31.4783 28.5977 31.6276 28.747C31.7816 28.8963 31.9613 29.013 32.1666 29.097C32.3719 29.1763 32.5913 29.216 32.8246 29.216C33.1046 29.216 33.3519 29.16 33.5666 29.048C33.7859 28.9313 33.9796 28.768 34.1476 28.558L34.8196 29.195ZM35.5782 30V24.988H37.3422C37.5802 24.988 37.8019 25.0277 38.0072 25.107C38.2172 25.1817 38.3992 25.289 38.5532 25.429C38.7072 25.569 38.8286 25.737 38.9172 25.933C39.0059 26.1243 39.0502 26.3367 39.0502 26.57C39.0502 26.808 39.0059 27.025 38.9172 27.221C38.8286 27.4123 38.7072 27.578 38.5532 27.718C38.3992 27.858 38.2172 27.9677 38.0072 28.047C37.8019 28.1217 37.5802 28.159 37.3422 28.159H36.5232V30H35.5782ZM37.3562 27.263C37.6036 27.263 37.7902 27.193 37.9162 27.053C38.0422 26.913 38.1052 26.752 38.1052 26.57C38.1052 26.4813 38.0889 26.395 38.0562 26.311C38.0282 26.227 37.9816 26.1547 37.9162 26.094C37.8556 26.0287 37.7786 25.9773 37.6852 25.94C37.5919 25.9027 37.4822 25.884 37.3562 25.884H36.5232V27.263H37.3562Z" fill="#637CF7"/>
</g>
<defs>
<linearGradient id="paint0_linear_14002_27363" x1="-8.5" y1="-9.5" x2="75" y2="79" gradientUnits="userSpaceOnUse">
<stop stop-color="#F8F9FF"/>
<stop offset="1" stop-color="#DBDEFE"/>
</linearGradient>
<linearGradient id="paint1_linear_14002_27363" x1="10.2305" y1="14.5007" x2="58.5413" y2="12.4833" gradientUnits="userSpaceOnUse">
<stop stop-color="#7088FF"/>
<stop offset="1" stop-color="#3A4991"/>
</linearGradient>
<linearGradient id="paint2_linear_14002_27363" x1="9.34375" y1="31.5158" x2="60.2457" y2="31.0865" gradientUnits="userSpaceOnUse">
<stop stop-color="#7088FF"/>
<stop offset="1" stop-color="#3A4991"/>
</linearGradient>
<linearGradient id="paint3_linear_14002_27363" x1="9.32617" y1="35.504" x2="60.2264" y2="34.9804" gradientUnits="userSpaceOnUse">
<stop stop-color="#7088FF"/>
<stop offset="1" stop-color="#3A4991"/>
</linearGradient>
<clipPath id="clip0_14002_27363">
<rect width="44.3129" height="44.3129" fill="white" transform="translate(9.34375 9.35938)"/>
</clipPath>
<clipPath id="clip1_14002_27363">
<rect width="28" height="30" fill="white" transform="translate(17 21)"/>
</clipPath>
</defs>
</svg>
