<svg width="64" height="64" viewBox="0 0 64 64" fill="none" xmlns="http://www.w3.org/2000/svg">
<rect opacity="0.6" width="64" height="64" rx="12" fill="url(#paint0_linear_14002_27387)"/>
<g clip-path="url(#clip0_14002_27387)">
<path d="M51.089 10.2456H11.4994C10.7986 10.2456 10.2305 10.8137 10.2305 11.5146V17.4867C10.2305 18.1876 10.7986 18.7557 11.4994 18.7557H51.089C51.7898 18.7557 52.358 18.1876 52.358 17.4867V11.5146C52.358 10.8137 51.7898 10.2456 51.089 10.2456Z" fill="url(#paint1_linear_14002_27387)"/>
<path d="M12.5665 53.6723C10.7336 53.6723 9.34375 52.1214 9.34375 50.0668V12.1994C9.34375 10.7089 10.8746 9.35938 12.5665 9.35938H50.4339C52.0856 9.35938 53.6567 10.7391 53.6567 12.1994V37.2262C53.6567 37.6391 53.3143 37.9815 52.9014 37.9815C52.4884 37.9815 52.146 37.6391 52.146 37.2262V20.1053C52.146 19.7326 51.8439 19.4305 51.4713 19.4305H11.5292C11.3479 19.4305 11.1767 19.501 11.0558 19.6319C10.9249 19.7628 10.8544 19.924 10.8544 20.1053V50.0668C10.8544 51.3056 11.5594 52.1616 12.5665 52.1616H37.2105C37.6235 52.1616 37.9659 52.5041 37.9659 52.917C37.9659 53.3299 37.6235 53.6723 37.2105 53.6723H12.5665ZM12.5665 10.87C11.6299 10.87 10.935 11.6052 10.8645 12.1088V17.2451C10.8645 17.6177 11.1566 17.9198 11.5292 17.9198H51.4813C51.854 17.9198 52.1561 17.6177 52.1561 17.2451V12.1994C52.1561 12.1994 52.1561 12.1088 52.1561 12.0987C52.0856 11.6052 51.3806 10.8801 50.4541 10.8801H12.5665V10.87Z" fill="url(#paint2_linear_14002_27387)"/>
<path d="M15.8097 15.4625C15.2256 15.4625 14.7422 14.9791 14.7422 14.3949C14.7422 13.8108 15.2155 13.3274 15.8097 13.3274C16.4039 13.3274 16.8773 13.8108 16.8773 14.3949C16.8773 14.9791 16.4039 15.4625 15.8097 15.4625Z" fill="#F8F8FF"/>
<path d="M20.8849 15.4625C20.3008 15.4625 19.8174 14.9791 19.8174 14.3949C19.8174 13.8108 20.3008 13.3274 20.8849 13.3274C21.469 13.3274 21.9525 13.8108 21.9525 14.3949C21.9525 14.9791 21.4791 15.4625 20.8849 15.4625Z" fill="#F8F8FF"/>
<path d="M25.9709 15.4625C25.3867 15.4625 24.9033 14.9791 24.9033 14.3949C24.9033 13.8108 25.3867 13.3274 25.9709 13.3274C26.555 13.3274 27.0384 13.8108 27.0384 14.3949C27.0384 14.9791 26.5651 15.4625 25.9709 15.4625Z" fill="#F8F8FF"/>
<rect x="10.3262" y="18.3357" width="42.3129" height="34.3366" rx="3" fill="white" stroke="url(#paint3_linear_14002_27387)" stroke-width="2"/>
<rect x="16" y="24" width="31" height="8" rx="1" fill="#B1BDF7"/>
<rect x="16" y="35" width="9" height="8" rx="1" fill="#637CF7"/>
<rect x="27" y="35" width="9" height="8" rx="1" fill="#637CF7"/>
<rect x="38" y="35" width="9" height="8" rx="1" fill="#637CF7"/>
<rect x="16" y="45" width="9" height="3" rx="0.5" fill="#4254AC"/>
<rect x="27" y="45" width="9" height="3" rx="0.5" fill="#4254AC"/>
<rect x="38" y="45" width="9" height="3" rx="0.5" fill="#4254AC"/>
</g>
<defs>
<linearGradient id="paint0_linear_14002_27387" x1="-8.5" y1="-9.5" x2="75" y2="79" gradientUnits="userSpaceOnUse">
<stop stop-color="#F8F9FF"/>
<stop offset="1" stop-color="#DBDEFE"/>
</linearGradient>
<linearGradient id="paint1_linear_14002_27387" x1="10.2305" y1="14.5007" x2="58.5413" y2="12.4833" gradientUnits="userSpaceOnUse">
<stop stop-color="#7088FF"/>
<stop offset="1" stop-color="#3A4991"/>
</linearGradient>
<linearGradient id="paint2_linear_14002_27387" x1="9.34375" y1="31.5158" x2="60.2457" y2="31.0865" gradientUnits="userSpaceOnUse">
<stop stop-color="#7088FF"/>
<stop offset="1" stop-color="#3A4991"/>
</linearGradient>
<linearGradient id="paint3_linear_14002_27387" x1="9.32617" y1="35.504" x2="60.2264" y2="34.9804" gradientUnits="userSpaceOnUse">
<stop stop-color="#7088FF"/>
<stop offset="1" stop-color="#3A4991"/>
</linearGradient>
<clipPath id="clip0_14002_27387">
<rect width="44.3129" height="44.3129" fill="white" transform="translate(9.34375 9.35938)"/>
</clipPath>
</defs>
</svg>
