<svg width="64" height="64" viewBox="0 0 64 64" fill="none" xmlns="http://www.w3.org/2000/svg">
<rect opacity="0.6" width="64" height="64" rx="12" fill="url(#paint0_linear_14002_26894)"/>
<g clip-path="url(#clip0_14002_26894)">
<path d="M51.089 10.2456H11.4994C10.7986 10.2456 10.2305 10.8137 10.2305 11.5146V17.4867C10.2305 18.1876 10.7986 18.7557 11.4994 18.7557H51.089C51.7898 18.7557 52.358 18.1876 52.358 17.4867V11.5146C52.358 10.8137 51.7898 10.2456 51.089 10.2456Z" fill="url(#paint1_linear_14002_26894)"/>
<path d="M12.5665 53.6723C10.7336 53.6723 9.34375 52.1214 9.34375 50.0668V12.1994C9.34375 10.7089 10.8746 9.35938 12.5665 9.35938H50.4339C52.0856 9.35938 53.6567 10.7391 53.6567 12.1994V37.2262C53.6567 37.6391 53.3143 37.9815 52.9014 37.9815C52.4884 37.9815 52.146 37.6391 52.146 37.2262V20.1053C52.146 19.7326 51.8439 19.4305 51.4713 19.4305H11.5292C11.3479 19.4305 11.1767 19.501 11.0558 19.6319C10.9249 19.7628 10.8544 19.924 10.8544 20.1053V50.0668C10.8544 51.3056 11.5594 52.1616 12.5665 52.1616H37.2105C37.6235 52.1616 37.9659 52.5041 37.9659 52.917C37.9659 53.3299 37.6235 53.6723 37.2105 53.6723H12.5665ZM12.5665 10.87C11.6299 10.87 10.935 11.6052 10.8645 12.1088V17.2451C10.8645 17.6177 11.1566 17.9198 11.5292 17.9198H51.4813C51.854 17.9198 52.1561 17.6177 52.1561 17.2451V12.1994C52.1561 12.1994 52.1561 12.1088 52.1561 12.0987C52.0856 11.6052 51.3806 10.8801 50.4541 10.8801H12.5665V10.87Z" fill="url(#paint2_linear_14002_26894)"/>
<path d="M15.8097 15.4625C15.2256 15.4625 14.7422 14.9791 14.7422 14.3949C14.7422 13.8108 15.2155 13.3274 15.8097 13.3274C16.4039 13.3274 16.8773 13.8108 16.8773 14.3949C16.8773 14.9791 16.4039 15.4625 15.8097 15.4625Z" fill="#F8F8FF"/>
<path d="M20.8849 15.4625C20.3008 15.4625 19.8174 14.9791 19.8174 14.3949C19.8174 13.8108 20.3008 13.3274 20.8849 13.3274C21.469 13.3274 21.9525 13.8108 21.9525 14.3949C21.9525 14.9791 21.4791 15.4625 20.8849 15.4625Z" fill="#F8F8FF"/>
<path d="M25.9709 15.4625C25.3867 15.4625 24.9033 14.9791 24.9033 14.3949C24.9033 13.8108 25.3867 13.3274 25.9709 13.3274C26.555 13.3274 27.0384 13.8108 27.0384 14.3949C27.0384 14.9791 26.5651 15.4625 25.9709 15.4625Z" fill="#F8F8FF"/>
<rect x="10.3262" y="18.3357" width="42.3129" height="34.3366" rx="3" fill="white" stroke="url(#paint3_linear_14002_26894)" stroke-width="2"/>
<path d="M43.2188 33.9375H40.4922L35.8535 27.5498C35.7129 27.3568 35.53 27.1986 35.3188 27.0873C35.1075 26.976 34.8736 26.9146 34.6349 26.9079C34.3963 26.9011 34.1592 26.9491 33.942 27.0482C33.7248 27.1473 33.5331 27.2948 33.3818 27.4795L32.127 28.9346L32.1074 28.9571C32.0347 29.0484 31.9423 29.1222 31.8372 29.1729C31.732 29.2236 31.6168 29.2499 31.5 29.2499C31.3832 29.2499 31.268 29.2236 31.1628 29.1729C31.0577 29.1222 30.9653 29.0484 30.8926 28.9571L30.873 28.9346L29.6182 27.4795C29.4669 27.2948 29.2752 27.1473 29.058 27.0482C28.8408 26.9491 28.6037 26.9011 28.3651 26.9079C28.1264 26.9146 27.8925 26.976 27.6812 27.0873C27.47 27.1986 27.2871 27.3568 27.1465 27.5498L22.5078 33.9375H19.7812C19.574 33.9375 19.3753 34.0198 19.2288 34.1663C19.0823 34.3129 19 34.5116 19 34.7188C19 34.926 19.0823 35.1247 19.2288 35.2712C19.3753 35.4177 19.574 35.5 19.7812 35.5H43.2188C43.426 35.5 43.6247 35.4177 43.7712 35.2712C43.9177 35.1247 44 34.926 44 34.7188C44 34.5116 43.9177 34.3129 43.7712 34.1663C43.6247 34.0198 43.426 33.9375 43.2188 33.9375ZM28.4082 28.4688L28.4268 28.4912L29.6816 29.9453C29.9014 30.2156 30.1786 30.4334 30.4932 30.5831C30.8077 30.7327 31.1517 30.8103 31.5 30.8103C31.8483 30.8103 32.1923 30.7327 32.5068 30.5831C32.8214 30.4334 33.0986 30.2156 33.3184 29.9453L34.5732 28.4912C34.5791 28.4834 34.583 28.4766 34.5898 28.4688L38.5605 33.9375H24.4385L28.4082 28.4688ZM36.5781 37.0625C35.7135 37.0627 34.8792 37.3815 34.2348 37.958C33.5904 38.5345 33.181 39.3282 33.085 40.1875H29.915C29.8187 39.329 29.4097 38.536 28.766 37.9599C28.1223 37.3837 27.289 37.0647 26.4252 37.0638C25.5613 37.0628 24.7273 37.38 24.0823 37.9548C23.4374 38.5295 23.0266 39.3216 22.9285 40.1799C22.8303 41.0382 23.0516 41.9026 23.5501 42.6081C24.0486 43.3137 24.7895 43.811 25.6312 44.0051C26.473 44.1992 27.3568 44.0766 28.114 43.6607C28.8712 43.2448 29.4487 42.5646 29.7363 41.75H33.2637C33.4785 42.3577 33.8563 42.8946 34.3557 43.3021C34.8551 43.7096 35.4568 43.9719 36.0953 44.0604C36.7337 44.149 37.3842 44.0603 37.9756 43.8041C38.567 43.548 39.0767 43.1341 39.4488 42.6079C39.8209 42.0816 40.0412 41.4632 40.0855 40.8202C40.1299 40.1771 39.9966 39.5343 39.7003 38.9619C39.404 38.3896 38.9561 37.9096 38.4054 37.5747C37.8548 37.2397 37.2227 37.0625 36.5781 37.0625ZM26.4219 42.5313C26.0356 42.5313 25.658 42.4167 25.3368 42.2021C25.0156 41.9875 24.7653 41.6825 24.6174 41.3256C24.4696 40.9687 24.4309 40.576 24.5063 40.1971C24.5816 39.8182 24.7677 39.4702 25.0408 39.1971C25.314 38.9239 25.662 38.7379 26.0408 38.6626C26.4197 38.5872 26.8124 38.6259 27.1693 38.7737C27.5262 38.9215 27.8312 39.1719 28.0458 39.4931C28.2605 39.8142 28.375 40.1919 28.375 40.5781C28.375 40.8346 28.3245 41.0886 28.2263 41.3256C28.1282 41.5625 27.9843 41.7779 27.8029 41.9592C27.6216 42.1406 27.4063 42.2844 27.1693 42.3826C26.9323 42.4808 26.6784 42.5313 26.4219 42.5313ZM36.5781 42.5313C36.1918 42.5313 35.8142 42.4167 35.493 42.2021C35.1718 41.9875 34.9215 41.6825 34.7737 41.3256C34.6258 40.9687 34.5872 40.576 34.6625 40.1971C34.7379 39.8182 34.9239 39.4702 35.1971 39.1971C35.4702 38.9239 35.8182 38.7379 36.1971 38.6626C36.576 38.5872 36.9687 38.6259 37.3256 38.7737C37.6824 38.9215 37.9875 39.1719 38.2021 39.4931C38.4167 39.8142 38.5312 40.1919 38.5312 40.5781C38.5312 41.0962 38.3255 41.5929 37.9592 41.9592C37.5929 42.3255 37.0961 42.5313 36.5781 42.5313Z" fill="#4254AC"/>
<path d="M36.5777 37C35.7131 37.0002 34.8788 37.319 34.2344 37.8955C33.59 38.472 33.1806 39.2657 33.0845 40.125H29.9146C29.8183 39.2665 29.4093 38.4735 28.7656 37.8973C28.1219 37.3212 27.2886 37.0022 26.4247 37.0013C25.5609 37.0003 24.7269 37.3175 24.0819 37.8922C23.437 38.467 23.0262 39.2591 22.9281 40.1174C22.8299 40.9757 23.0512 41.8401 23.5497 42.5456C24.0482 43.2511 24.789 43.7484 25.6308 43.9426C26.4726 44.1367 27.3564 44.0141 28.1136 43.5982C28.8707 43.1823 29.4483 42.5021 29.7359 41.6875H33.2633C33.4781 42.2952 33.8559 42.8321 34.3552 43.2396C34.8546 43.647 35.4564 43.9094 36.0949 43.9979C36.7333 44.0865 37.3837 43.9978 37.9752 43.7416C38.5666 43.4854 39.0762 43.0716 39.4483 42.5453C39.8205 42.0191 40.0407 41.4006 40.0851 40.7576C40.1295 40.1146 39.9962 39.4718 39.6999 38.8994C39.4036 38.327 38.9557 37.8471 38.405 37.5121C37.8544 37.1771 37.2222 37 36.5777 37ZM26.4215 42.4688C26.0352 42.4688 25.6576 42.3542 25.3364 42.1396C25.0152 41.925 24.7648 41.6199 24.617 41.2631C24.4692 40.9062 24.4305 40.5135 24.5059 40.1346C24.5812 39.7557 24.7672 39.4077 25.0404 39.1346C25.3135 38.8614 25.6616 38.6754 26.0404 38.6C26.4193 38.5247 26.812 38.5633 27.1689 38.7112C27.5258 38.859 27.8308 39.1093 28.0454 39.4305C28.26 39.7517 28.3746 40.1293 28.3746 40.5156C28.3746 40.7721 28.3241 41.0261 28.2259 41.2631C28.1278 41.5 27.9839 41.7153 27.8025 41.8967C27.6212 42.0781 27.4059 42.2219 27.1689 42.3201C26.9319 42.4182 26.6779 42.4688 26.4215 42.4688ZM36.5777 42.4688C36.1914 42.4688 35.8138 42.3542 35.4926 42.1396C35.1714 41.925 34.9211 41.6199 34.7733 41.2631C34.6254 40.9062 34.5868 40.5135 34.6621 40.1346C34.7375 39.7557 34.9235 39.4077 35.1966 39.1346C35.4698 38.8614 35.8178 38.6754 36.1967 38.6C36.5755 38.5247 36.9683 38.5633 37.3251 38.7112C37.682 38.859 37.9871 39.1093 38.2017 39.4305C38.4163 39.7517 38.5308 40.1293 38.5308 40.5156C38.5308 41.0336 38.3251 41.5304 37.9588 41.8967C37.5925 42.263 37.0957 42.4688 36.5777 42.4688Z" fill="#637CF7"/>
<path d="M27.5 28L23.5 34.5H40L35.5 28H34L33 29L31.5 30H30.5L29 28H27.5Z" fill="#4254AC" stroke="#4254AC"/>
</g>
<defs>
<linearGradient id="paint0_linear_14002_26894" x1="-8.5" y1="-9.5" x2="75" y2="79" gradientUnits="userSpaceOnUse">
<stop stop-color="#F8F9FF"/>
<stop offset="1" stop-color="#DBDEFE"/>
</linearGradient>
<linearGradient id="paint1_linear_14002_26894" x1="10.2305" y1="14.5007" x2="58.5413" y2="12.4833" gradientUnits="userSpaceOnUse">
<stop stop-color="#7088FF"/>
<stop offset="1" stop-color="#3A4991"/>
</linearGradient>
<linearGradient id="paint2_linear_14002_26894" x1="9.34375" y1="31.5158" x2="60.2457" y2="31.0865" gradientUnits="userSpaceOnUse">
<stop stop-color="#7088FF"/>
<stop offset="1" stop-color="#3A4991"/>
</linearGradient>
<linearGradient id="paint3_linear_14002_26894" x1="9.32617" y1="35.504" x2="60.2264" y2="34.9804" gradientUnits="userSpaceOnUse">
<stop stop-color="#7088FF"/>
<stop offset="1" stop-color="#3A4991"/>
</linearGradient>
<clipPath id="clip0_14002_26894">
<rect width="44.3129" height="44.3129" fill="white" transform="translate(9.34375 9.35938)"/>
</clipPath>
</defs>
</svg>
