<svg width="64" height="64" viewBox="0 0 64 64" fill="none" xmlns="http://www.w3.org/2000/svg">
<rect opacity="0.6" width="64" height="64" rx="12" fill="url(#paint0_linear_14002_26780)"/>
<g clip-path="url(#clip0_14002_26780)">
<path d="M51.089 10.2456H11.4994C10.7986 10.2456 10.2305 10.8137 10.2305 11.5146V17.4867C10.2305 18.1876 10.7986 18.7557 11.4994 18.7557H51.089C51.7898 18.7557 52.358 18.1876 52.358 17.4867V11.5146C52.358 10.8137 51.7898 10.2456 51.089 10.2456Z" fill="url(#paint1_linear_14002_26780)"/>
<path d="M12.5665 53.6723C10.7336 53.6723 9.34375 52.1214 9.34375 50.0668V12.1994C9.34375 10.7089 10.8746 9.35938 12.5665 9.35938H50.4339C52.0856 9.35938 53.6567 10.7391 53.6567 12.1994V37.2262C53.6567 37.6391 53.3143 37.9815 52.9014 37.9815C52.4884 37.9815 52.146 37.6391 52.146 37.2262V20.1053C52.146 19.7326 51.8439 19.4305 51.4713 19.4305H11.5292C11.3479 19.4305 11.1767 19.501 11.0558 19.6319C10.9249 19.7628 10.8544 19.924 10.8544 20.1053V50.0668C10.8544 51.3056 11.5594 52.1616 12.5665 52.1616H37.2105C37.6235 52.1616 37.9659 52.5041 37.9659 52.917C37.9659 53.3299 37.6235 53.6723 37.2105 53.6723H12.5665ZM12.5665 10.87C11.6299 10.87 10.935 11.6052 10.8645 12.1088V17.2451C10.8645 17.6177 11.1566 17.9198 11.5292 17.9198H51.4813C51.854 17.9198 52.1561 17.6177 52.1561 17.2451V12.1994C52.1561 12.1994 52.1561 12.1088 52.1561 12.0987C52.0856 11.6052 51.3806 10.8801 50.4541 10.8801H12.5665V10.87Z" fill="url(#paint2_linear_14002_26780)"/>
<path d="M15.8097 15.4625C15.2256 15.4625 14.7422 14.9791 14.7422 14.3949C14.7422 13.8108 15.2155 13.3274 15.8097 13.3274C16.4039 13.3274 16.8773 13.8108 16.8773 14.3949C16.8773 14.9791 16.4039 15.4625 15.8097 15.4625Z" fill="#F8F8FF"/>
<path d="M20.8849 15.4625C20.3008 15.4625 19.8174 14.9791 19.8174 14.3949C19.8174 13.8108 20.3008 13.3274 20.8849 13.3274C21.469 13.3274 21.9525 13.8108 21.9525 14.3949C21.9525 14.9791 21.4791 15.4625 20.8849 15.4625Z" fill="#F8F8FF"/>
<path d="M25.9709 15.4625C25.3867 15.4625 24.9033 14.9791 24.9033 14.3949C24.9033 13.8108 25.3867 13.3274 25.9709 13.3274C26.555 13.3274 27.0384 13.8108 27.0384 14.3949C27.0384 14.9791 26.5651 15.4625 25.9709 15.4625Z" fill="#F8F8FF"/>
<rect x="10.3262" y="18.3357" width="42.3129" height="34.3366" rx="3" fill="white" stroke="url(#paint3_linear_14002_26780)" stroke-width="2"/>
<path d="M41.625 28.75H36.5625V27.9062C36.5625 27.2349 36.2958 26.5911 35.8211 26.1164C35.3464 25.6417 34.7026 25.375 34.0312 25.375H28.9688C28.2974 25.375 27.6536 25.6417 27.1789 26.1164C26.7042 26.5911 26.4375 27.2349 26.4375 27.9062V28.75H21.375C20.9274 28.75 20.4982 28.9278 20.1818 29.2443C19.8653 29.5607 19.6875 29.9899 19.6875 30.4375V33.3906C19.6875 33.5025 19.7319 33.6098 19.8111 33.6889C19.8902 33.7681 19.9975 33.8125 20.1094 33.8125H24.75V32.1535C24.7465 31.9354 24.8259 31.7241 24.9721 31.5622C25.1183 31.4003 25.3205 31.2999 25.5379 31.2812C25.6533 31.2736 25.769 31.2897 25.8779 31.3287C25.9868 31.3677 26.0866 31.4286 26.1709 31.5077C26.2553 31.5868 26.3225 31.6825 26.3684 31.7887C26.4142 31.8948 26.4378 32.0093 26.4375 32.125V33.8125H36.5625V32.1535C36.559 31.9354 36.6384 31.7241 36.7846 31.5622C36.9308 31.4003 37.133 31.2999 37.3504 31.2812C37.4658 31.2736 37.5815 31.2897 37.6904 31.3287C37.7993 31.3677 37.8991 31.4286 37.9834 31.5077C38.0678 31.5868 38.135 31.6825 38.1809 31.7887C38.2267 31.8948 38.2503 32.0093 38.25 32.125V33.8125H42.8906C43.0025 33.8125 43.1098 33.7681 43.1889 33.6889C43.2681 33.6098 43.3125 33.5025 43.3125 33.3906V30.4375C43.3125 29.9899 43.1347 29.5607 42.8182 29.2443C42.5018 28.9278 42.0726 28.75 41.625 28.75ZM34.875 28.75H28.125V27.9062C28.125 27.6825 28.2139 27.4679 28.3721 27.3096C28.5304 27.1514 28.745 27.0625 28.9688 27.0625H34.0312C34.255 27.0625 34.4696 27.1514 34.6279 27.3096C34.7861 27.4679 34.875 27.6825 34.875 27.9062V28.75ZM43.3125 35.9219V42.25C43.3125 42.6976 43.1347 43.1268 42.8182 43.4432C42.5018 43.7597 42.0726 43.9375 41.625 43.9375H21.375C20.9274 43.9375 20.4982 43.7597 20.1818 43.4432C19.8653 43.1268 19.6875 42.6976 19.6875 42.25V35.9219C19.6875 35.81 19.7319 35.7027 19.8111 35.6236C19.8902 35.5444 19.9975 35.5 20.1094 35.5H24.75V37.1875C24.7497 37.3032 24.7733 37.4177 24.8191 37.5238C24.865 37.63 24.9322 37.7257 25.0166 37.8048C25.1009 37.8839 25.2007 37.9448 25.3096 37.9838C25.4185 38.0228 25.5342 38.0389 25.6496 38.0312C25.867 38.0126 26.0692 37.9122 26.2154 37.7503C26.3616 37.5884 26.441 37.3771 26.4375 37.159V35.5H36.5625V37.1875C36.5622 37.3032 36.5858 37.4177 36.6316 37.5238C36.6775 37.63 36.7447 37.7257 36.8291 37.8048C36.9134 37.8839 37.0132 37.9448 37.1221 37.9838C37.231 38.0228 37.3467 38.0389 37.4621 38.0312C37.6791 38.0126 37.881 37.9125 38.0271 37.7511C38.1733 37.5897 38.2529 37.3789 38.25 37.1611V35.5H42.8906C43.0025 35.5 43.1098 35.5444 43.1889 35.6236C43.2681 35.7027 43.3125 35.81 43.3125 35.9219Z" fill="#637CF7"/>
</g>
<defs>
<linearGradient id="paint0_linear_14002_26780" x1="-8.5" y1="-9.5" x2="75" y2="79" gradientUnits="userSpaceOnUse">
<stop stop-color="#F8F9FF"/>
<stop offset="1" stop-color="#DBDEFE"/>
</linearGradient>
<linearGradient id="paint1_linear_14002_26780" x1="10.2305" y1="14.5007" x2="58.5413" y2="12.4833" gradientUnits="userSpaceOnUse">
<stop stop-color="#7088FF"/>
<stop offset="1" stop-color="#3A4991"/>
</linearGradient>
<linearGradient id="paint2_linear_14002_26780" x1="9.34375" y1="31.5158" x2="60.2457" y2="31.0865" gradientUnits="userSpaceOnUse">
<stop stop-color="#7088FF"/>
<stop offset="1" stop-color="#3A4991"/>
</linearGradient>
<linearGradient id="paint3_linear_14002_26780" x1="9.32617" y1="35.504" x2="60.2264" y2="34.9804" gradientUnits="userSpaceOnUse">
<stop stop-color="#7088FF"/>
<stop offset="1" stop-color="#3A4991"/>
</linearGradient>
<clipPath id="clip0_14002_26780">
<rect width="44.3129" height="44.3129" fill="white" transform="translate(9.34375 9.35938)"/>
</clipPath>
</defs>
</svg>
