<svg width="64" height="64" viewBox="0 0 64 64" fill="none" xmlns="http://www.w3.org/2000/svg">
<rect opacity="0.6" width="64" height="64" rx="12" fill="url(#paint0_linear_14002_26605)"/>
<g clip-path="url(#clip0_14002_26605)">
<path d="M51.089 10.2456H11.4994C10.7986 10.2456 10.2305 10.8137 10.2305 11.5146V17.4867C10.2305 18.1876 10.7986 18.7557 11.4994 18.7557H51.089C51.7898 18.7557 52.358 18.1876 52.358 17.4867V11.5146C52.358 10.8137 51.7898 10.2456 51.089 10.2456Z" fill="url(#paint1_linear_14002_26605)"/>
<path d="M12.5665 53.6723C10.7336 53.6723 9.34375 52.1214 9.34375 50.0668V12.1994C9.34375 10.7089 10.8746 9.35938 12.5665 9.35938H50.4339C52.0856 9.35938 53.6567 10.7391 53.6567 12.1994V37.2262C53.6567 37.6391 53.3143 37.9815 52.9014 37.9815C52.4884 37.9815 52.146 37.6391 52.146 37.2262V20.1053C52.146 19.7326 51.8439 19.4305 51.4713 19.4305H11.5292C11.3479 19.4305 11.1767 19.501 11.0558 19.6319C10.9249 19.7628 10.8544 19.924 10.8544 20.1053V50.0668C10.8544 51.3056 11.5594 52.1616 12.5665 52.1616H37.2105C37.6235 52.1616 37.9659 52.5041 37.9659 52.917C37.9659 53.3299 37.6235 53.6723 37.2105 53.6723H12.5665ZM12.5665 10.87C11.6299 10.87 10.935 11.6052 10.8645 12.1088V17.2451C10.8645 17.6177 11.1566 17.9198 11.5292 17.9198H51.4813C51.854 17.9198 52.1561 17.6177 52.1561 17.2451V12.1994C52.1561 12.1994 52.1561 12.1088 52.1561 12.0987C52.0856 11.6052 51.3806 10.8801 50.4541 10.8801H12.5665V10.87Z" fill="url(#paint2_linear_14002_26605)"/>
<path d="M15.8097 15.4625C15.2256 15.4625 14.7422 14.9791 14.7422 14.3949C14.7422 13.8108 15.2155 13.3274 15.8097 13.3274C16.4039 13.3274 16.8773 13.8108 16.8773 14.3949C16.8773 14.9791 16.4039 15.4625 15.8097 15.4625Z" fill="#F8F8FF"/>
<path d="M20.8849 15.4625C20.3008 15.4625 19.8174 14.9791 19.8174 14.3949C19.8174 13.8108 20.3008 13.3274 20.8849 13.3274C21.469 13.3274 21.9525 13.8108 21.9525 14.3949C21.9525 14.9791 21.4791 15.4625 20.8849 15.4625Z" fill="#F8F8FF"/>
<path d="M25.9709 15.4625C25.3867 15.4625 24.9033 14.9791 24.9033 14.3949C24.9033 13.8108 25.3867 13.3274 25.9709 13.3274C26.555 13.3274 27.0384 13.8108 27.0384 14.3949C27.0384 14.9791 26.5651 15.4625 25.9709 15.4625Z" fill="#F8F8FF"/>
<rect x="10.3262" y="18.3357" width="42.3129" height="34.3366" rx="3" fill="white" stroke="url(#paint3_linear_14002_26605)" stroke-width="2"/>
<path d="M19.112 41.988H20.113L20.89 44.914L21.002 45.453H21.058L21.205 44.914L21.926 42.66H22.808L23.536 44.914L23.676 45.446H23.732L23.837 44.914L24.565 41.988H25.566L24.236 47H23.326L22.542 44.585L22.395 44.032H22.339L22.192 44.585L21.408 47H20.498L19.112 41.988ZM26.1827 41.988H27.1277V43.99H29.2347V41.988H30.1797V47H29.2347V44.886H27.1277V47H26.1827V41.988ZM33.4913 47.112C33.1179 47.112 32.7703 47.0443 32.4483 46.909C32.1309 46.7737 31.8556 46.5893 31.6223 46.356C31.3889 46.118 31.2046 45.8403 31.0693 45.523C30.9386 45.201 30.8733 44.858 30.8733 44.494C30.8733 44.13 30.9386 43.7893 31.0693 43.472C31.2046 43.15 31.3889 42.8723 31.6223 42.639C31.8556 42.401 32.1309 42.2143 32.4483 42.079C32.7703 41.9437 33.1179 41.876 33.4913 41.876C33.8646 41.876 34.2099 41.9437 34.5273 42.079C34.8493 42.2143 35.1269 42.401 35.3603 42.639C35.5936 42.8723 35.7756 43.15 35.9063 43.472C36.0416 43.7893 36.1093 44.13 36.1093 44.494C36.1093 44.858 36.0416 45.201 35.9063 45.523C35.7756 45.8403 35.5936 46.118 35.3603 46.356C35.1269 46.5893 34.8493 46.7737 34.5273 46.909C34.2099 47.0443 33.8646 47.112 33.4913 47.112ZM33.4913 46.216C33.7246 46.216 33.9416 46.174 34.1423 46.09C34.3476 46.006 34.5249 45.8893 34.6743 45.74C34.8283 45.5907 34.9473 45.411 35.0313 45.201C35.1199 44.9863 35.1643 44.7507 35.1643 44.494C35.1643 44.2373 35.1199 44.004 35.0313 43.794C34.9473 43.5793 34.8283 43.3973 34.6743 43.248C34.5249 43.0987 34.3476 42.982 34.1423 42.898C33.9416 42.814 33.7246 42.772 33.4913 42.772C33.2579 42.772 33.0386 42.814 32.8333 42.898C32.6326 42.982 32.4553 43.0987 32.3013 43.248C32.1519 43.3973 32.0329 43.5793 31.9443 43.794C31.8603 44.004 31.8183 44.2373 31.8183 44.494C31.8183 44.7507 31.8603 44.9863 31.9443 45.201C32.0329 45.411 32.1519 45.5907 32.3013 45.74C32.4553 45.8893 32.6326 46.006 32.8333 46.09C33.0386 46.174 33.2579 46.216 33.4913 46.216ZM36.8741 41.988H37.8191V47H36.8741V41.988ZM40.3622 47.112C40.1475 47.112 39.9422 47.0817 39.7462 47.021C39.5502 46.9603 39.3705 46.8693 39.2072 46.748C39.0439 46.6267 38.9015 46.4797 38.7802 46.307C38.6589 46.1297 38.5632 45.9243 38.4932 45.691L39.3822 45.341C39.4475 45.593 39.5619 45.803 39.7252 45.971C39.8885 46.1343 40.1032 46.216 40.3692 46.216C40.4672 46.216 40.5605 46.2043 40.6492 46.181C40.7425 46.153 40.8242 46.1157 40.8942 46.069C40.9689 46.0177 41.0272 45.9547 41.0692 45.88C41.1112 45.8053 41.1322 45.719 41.1322 45.621C41.1322 45.5277 41.1159 45.4437 41.0832 45.369C41.0505 45.2943 40.9945 45.2243 40.9152 45.159C40.8405 45.0937 40.7402 45.0307 40.6142 44.97C40.4929 44.9093 40.3412 44.8463 40.1592 44.781L39.8512 44.669C39.7159 44.6223 39.5782 44.5593 39.4382 44.48C39.3029 44.4007 39.1792 44.305 39.0672 44.193C38.9552 44.081 38.8619 43.9503 38.7872 43.801C38.7172 43.647 38.6822 43.4743 38.6822 43.283C38.6822 43.087 38.7195 42.905 38.7942 42.737C38.8735 42.5643 38.9832 42.415 39.1232 42.289C39.2679 42.1583 39.4382 42.058 39.6342 41.988C39.8349 41.9133 40.0565 41.876 40.2992 41.876C40.5512 41.876 40.7682 41.911 40.9502 41.981C41.1369 42.0463 41.2932 42.1327 41.4192 42.24C41.5499 42.3427 41.6549 42.457 41.7342 42.583C41.8135 42.709 41.8719 42.828 41.9092 42.94L41.0762 43.29C41.0295 43.15 40.9432 43.024 40.8172 42.912C40.6959 42.8 40.5279 42.744 40.3132 42.744C40.1079 42.744 39.9375 42.793 39.8022 42.891C39.6669 42.9843 39.5992 43.108 39.5992 43.262C39.5992 43.4113 39.6645 43.5397 39.7952 43.647C39.9259 43.7497 40.1335 43.85 40.4182 43.948L40.7332 44.053C40.9339 44.123 41.1159 44.2047 41.2792 44.298C41.4472 44.3867 41.5895 44.494 41.7062 44.62C41.8275 44.746 41.9185 44.8907 41.9792 45.054C42.0445 45.2127 42.0772 45.397 42.0772 45.607C42.0772 45.8683 42.0235 46.0947 41.9162 46.286C41.8135 46.4727 41.6805 46.6267 41.5172 46.748C41.3539 46.8693 41.1695 46.9603 40.9642 47.021C40.7589 47.0817 40.5582 47.112 40.3622 47.112Z" fill="#637CF7"/>
<path d="M35.375 29.75C35.375 29.9158 35.3092 30.0747 35.1919 30.1919C35.0747 30.3092 34.9158 30.375 34.75 30.375H29.75C29.5842 30.375 29.4253 30.3092 29.3081 30.1919C29.1908 30.0747 29.125 29.9158 29.125 29.75C29.125 29.5842 29.1908 29.4253 29.3081 29.3081C29.4253 29.1908 29.5842 29.125 29.75 29.125H34.75C34.9158 29.125 35.0747 29.1908 35.1919 29.3081C35.3092 29.4253 35.375 29.5842 35.375 29.75ZM34.75 31.625H29.75C29.5842 31.625 29.4253 31.6908 29.3081 31.8081C29.1908 31.9253 29.125 32.0842 29.125 32.25C29.125 32.4158 29.1908 32.5747 29.3081 32.6919C29.4253 32.8092 29.5842 32.875 29.75 32.875H34.75C34.9158 32.875 35.0747 32.8092 35.1919 32.6919C35.3092 32.5747 35.375 32.4158 35.375 32.25C35.375 32.0842 35.3092 31.9253 35.1919 31.8081C35.0747 31.6908 34.9158 31.625 34.75 31.625ZM38.5 24.75V37.25C38.5 37.5815 38.3683 37.8995 38.1339 38.1339C37.8995 38.3683 37.5815 38.5 37.25 38.5H24.75C24.4185 38.5 24.1005 38.3683 23.8661 38.1339C23.6317 37.8995 23.5 37.5815 23.5 37.25V24.75C23.5 24.4185 23.6317 24.1005 23.8661 23.8661C24.1005 23.6317 24.4185 23.5 24.75 23.5H37.25C37.5815 23.5 37.8995 23.6317 38.1339 23.8661C38.3683 24.1005 38.5 24.4185 38.5 24.75ZM24.75 37.25H26.625V24.75H24.75V37.25ZM37.25 37.25V24.75H27.875V37.25H37.25Z" fill="#B1BDF7"/>
<line x1="29.75" y1="29.6094" x2="34.75" y2="29.6094" stroke="#4254AC" stroke-width="1.5" stroke-linecap="round"/>
<line x1="29.75" y1="32.25" x2="34.75" y2="32.25" stroke="#4254AC" stroke-width="1.5" stroke-linecap="round"/>
</g>
<defs>
<linearGradient id="paint0_linear_14002_26605" x1="-8.5" y1="-9.5" x2="75" y2="79" gradientUnits="userSpaceOnUse">
<stop stop-color="#F8F9FF"/>
<stop offset="1" stop-color="#DBDEFE"/>
</linearGradient>
<linearGradient id="paint1_linear_14002_26605" x1="10.2305" y1="14.5007" x2="58.5413" y2="12.4833" gradientUnits="userSpaceOnUse">
<stop stop-color="#7088FF"/>
<stop offset="1" stop-color="#3A4991"/>
</linearGradient>
<linearGradient id="paint2_linear_14002_26605" x1="9.34375" y1="31.5158" x2="60.2457" y2="31.0865" gradientUnits="userSpaceOnUse">
<stop stop-color="#7088FF"/>
<stop offset="1" stop-color="#3A4991"/>
</linearGradient>
<linearGradient id="paint3_linear_14002_26605" x1="9.32617" y1="35.504" x2="60.2264" y2="34.9804" gradientUnits="userSpaceOnUse">
<stop stop-color="#7088FF"/>
<stop offset="1" stop-color="#3A4991"/>
</linearGradient>
<clipPath id="clip0_14002_26605">
<rect width="44.3129" height="44.3129" fill="white" transform="translate(9.34375 9.35938)"/>
</clipPath>
</defs>
</svg>
