<svg width="64" height="64" viewBox="0 0 64 64" fill="none" xmlns="http://www.w3.org/2000/svg">
<rect opacity="0.6" width="64" height="64" rx="12" fill="url(#paint0_linear_14002_26578)"/>
<g clip-path="url(#clip0_14002_26578)">
<path d="M51.089 10.2456H11.4994C10.7986 10.2456 10.2305 10.8137 10.2305 11.5146V17.4867C10.2305 18.1876 10.7986 18.7557 11.4994 18.7557H51.089C51.7898 18.7557 52.358 18.1876 52.358 17.4867V11.5146C52.358 10.8137 51.7898 10.2456 51.089 10.2456Z" fill="url(#paint1_linear_14002_26578)"/>
<path d="M12.5665 53.6723C10.7336 53.6723 9.34375 52.1214 9.34375 50.0668V12.1994C9.34375 10.7089 10.8746 9.35938 12.5665 9.35938H50.4339C52.0856 9.35938 53.6567 10.7391 53.6567 12.1994V37.2262C53.6567 37.6391 53.3143 37.9815 52.9014 37.9815C52.4884 37.9815 52.146 37.6391 52.146 37.2262V20.1053C52.146 19.7326 51.8439 19.4305 51.4713 19.4305H11.5292C11.3479 19.4305 11.1767 19.501 11.0558 19.6319C10.9249 19.7628 10.8544 19.924 10.8544 20.1053V50.0668C10.8544 51.3056 11.5594 52.1616 12.5665 52.1616H37.2105C37.6235 52.1616 37.9659 52.5041 37.9659 52.917C37.9659 53.3299 37.6235 53.6723 37.2105 53.6723H12.5665ZM12.5665 10.87C11.6299 10.87 10.935 11.6052 10.8645 12.1088V17.2451C10.8645 17.6177 11.1566 17.9198 11.5292 17.9198H51.4813C51.854 17.9198 52.1561 17.6177 52.1561 17.2451V12.1994C52.1561 12.1994 52.1561 12.1088 52.1561 12.0987C52.0856 11.6052 51.3806 10.8801 50.4541 10.8801H12.5665V10.87Z" fill="url(#paint2_linear_14002_26578)"/>
<path d="M15.8097 15.4625C15.2256 15.4625 14.7422 14.9791 14.7422 14.3949C14.7422 13.8108 15.2155 13.3274 15.8097 13.3274C16.4039 13.3274 16.8773 13.8108 16.8773 14.3949C16.8773 14.9791 16.4039 15.4625 15.8097 15.4625Z" fill="#F8F8FF"/>
<path d="M20.8849 15.4625C20.3008 15.4625 19.8174 14.9791 19.8174 14.3949C19.8174 13.8108 20.3008 13.3274 20.8849 13.3274C21.469 13.3274 21.9525 13.8108 21.9525 14.3949C21.9525 14.9791 21.4791 15.4625 20.8849 15.4625Z" fill="#F8F8FF"/>
<path d="M25.9709 15.4625C25.3867 15.4625 24.9033 14.9791 24.9033 14.3949C24.9033 13.8108 25.3867 13.3274 25.9709 13.3274C26.555 13.3274 27.0384 13.8108 27.0384 14.3949C27.0384 14.9791 26.5651 15.4625 25.9709 15.4625Z" fill="#F8F8FF"/>
<rect x="10.3262" y="18.3357" width="42.3129" height="34.3366" rx="3" fill="white" stroke="url(#paint3_linear_14002_26578)" stroke-width="2"/>
<path d="M44 37C44 35.2928 43.6637 33.6023 43.0104 32.0251C42.3571 30.4479 41.3995 29.0148 40.1924 27.8076C38.9852 26.6005 37.5521 25.6429 35.9749 24.9896C34.3977 24.3363 32.7072 24 31 24C29.2928 24 27.6023 24.3363 26.0251 24.9896C24.4479 25.6429 23.0148 26.6005 21.8076 27.8076C20.6004 29.0148 19.6429 30.4479 18.9896 32.0251C18.3363 33.6023 18 35.2928 18 37H19.8575C19.8575 35.5367 20.1457 34.0878 20.7057 32.736C21.2657 31.3841 22.0864 30.1558 23.1211 29.1211C24.1558 28.0864 25.3841 27.2657 26.736 26.7057C28.0878 26.1457 29.5367 25.8575 31 25.8575C32.4633 25.8575 33.9122 26.1457 35.264 26.7057C36.6159 27.2657 37.8442 28.0864 38.8789 29.1211C39.9136 30.1558 40.7343 31.3841 41.2943 32.736C41.8543 34.0878 42.1425 35.5367 42.1425 37H44Z" fill="#B1BDF7"/>
<path d="M30.545 36.8546C28.9207 36.018 34.8122 31.5639 36.5429 30.6122C36.552 30.6072 36.5602 30.6175 36.5546 30.6262C35.2559 32.66 31.6946 37.4468 30.545 36.8546Z" fill="#4254AC" stroke="#4254AC" stroke-width="1.1"/>
<path d="M21.037 47.112C20.8223 47.112 20.617 47.0817 20.421 47.021C20.225 46.9603 20.0453 46.8693 19.882 46.748C19.7187 46.6267 19.5763 46.4797 19.455 46.307C19.3337 46.1297 19.238 45.9243 19.168 45.691L20.057 45.341C20.1223 45.593 20.2367 45.803 20.4 45.971C20.5633 46.1343 20.778 46.216 21.044 46.216C21.142 46.216 21.2353 46.2043 21.324 46.181C21.4173 46.153 21.499 46.1157 21.569 46.069C21.6437 46.0177 21.702 45.9547 21.744 45.88C21.786 45.8053 21.807 45.719 21.807 45.621C21.807 45.5277 21.7907 45.4437 21.758 45.369C21.7253 45.2943 21.6693 45.2243 21.59 45.159C21.5153 45.0937 21.415 45.0307 21.289 44.97C21.1677 44.9093 21.016 44.8463 20.834 44.781L20.526 44.669C20.3907 44.6223 20.253 44.5593 20.113 44.48C19.9777 44.4007 19.854 44.305 19.742 44.193C19.63 44.081 19.5367 43.9503 19.462 43.801C19.392 43.647 19.357 43.4743 19.357 43.283C19.357 43.087 19.3943 42.905 19.469 42.737C19.5483 42.5643 19.658 42.415 19.798 42.289C19.9427 42.1583 20.113 42.058 20.309 41.988C20.5097 41.9133 20.7313 41.876 20.974 41.876C21.226 41.876 21.443 41.911 21.625 41.981C21.8117 42.0463 21.968 42.1327 22.094 42.24C22.2247 42.3427 22.3297 42.457 22.409 42.583C22.4883 42.709 22.5467 42.828 22.584 42.94L21.751 43.29C21.7043 43.15 21.618 43.024 21.492 42.912C21.3707 42.8 21.2027 42.744 20.988 42.744C20.7827 42.744 20.6123 42.793 20.477 42.891C20.3417 42.9843 20.274 43.108 20.274 43.262C20.274 43.4113 20.3393 43.5397 20.47 43.647C20.6007 43.7497 20.8083 43.85 21.093 43.948L21.408 44.053C21.6087 44.123 21.7907 44.2047 21.954 44.298C22.122 44.3867 22.2643 44.494 22.381 44.62C22.5023 44.746 22.5933 44.8907 22.654 45.054C22.7193 45.2127 22.752 45.397 22.752 45.607C22.752 45.8683 22.6983 46.0947 22.591 46.286C22.4883 46.4727 22.3553 46.6267 22.192 46.748C22.0287 46.8693 21.8443 46.9603 21.639 47.021C21.4337 47.0817 21.233 47.112 21.037 47.112ZM27.9124 46.195C27.665 46.4937 27.3734 46.7223 27.0374 46.881C26.7014 47.035 26.3257 47.112 25.9104 47.112C25.537 47.112 25.1894 47.0443 24.8674 46.909C24.55 46.7737 24.2747 46.5893 24.0414 46.356C23.808 46.1227 23.6237 45.8473 23.4884 45.53C23.353 45.208 23.2854 44.8627 23.2854 44.494C23.2854 44.1253 23.353 43.7823 23.4884 43.465C23.6237 43.143 23.808 42.8653 24.0414 42.632C24.2747 42.3987 24.55 42.2143 24.8674 42.079C25.1894 41.9437 25.537 41.876 25.9104 41.876C26.3117 41.876 26.664 41.946 26.9674 42.086C27.2754 42.226 27.5484 42.429 27.7864 42.695L27.1214 43.339C26.972 43.1663 26.7994 43.0287 26.6034 42.926C26.412 42.8233 26.1834 42.772 25.9174 42.772C25.684 42.772 25.4647 42.814 25.2594 42.898C25.054 42.9773 24.8744 43.0917 24.7204 43.241C24.571 43.3903 24.452 43.5723 24.3634 43.787C24.2747 43.997 24.2304 44.2327 24.2304 44.494C24.2304 44.7553 24.2747 44.9933 24.3634 45.208C24.452 45.418 24.571 45.5977 24.7204 45.747C24.8744 45.8963 25.054 46.013 25.2594 46.097C25.4647 46.1763 25.684 46.216 25.9174 46.216C26.1974 46.216 26.4447 46.16 26.6594 46.048C26.8787 45.9313 27.0724 45.768 27.2404 45.558L27.9124 46.195ZM30.9756 47.112C30.6023 47.112 30.2546 47.0443 29.9326 46.909C29.6153 46.7737 29.34 46.5893 29.1066 46.356C28.8733 46.118 28.689 45.8403 28.5536 45.523C28.423 45.201 28.3576 44.858 28.3576 44.494C28.3576 44.13 28.423 43.7893 28.5536 43.472C28.689 43.15 28.8733 42.8723 29.1066 42.639C29.34 42.401 29.6153 42.2143 29.9326 42.079C30.2546 41.9437 30.6023 41.876 30.9756 41.876C31.349 41.876 31.6943 41.9437 32.0116 42.079C32.3336 42.2143 32.6113 42.401 32.8446 42.639C33.078 42.8723 33.26 43.15 33.3906 43.472C33.526 43.7893 33.5936 44.13 33.5936 44.494C33.5936 44.858 33.526 45.201 33.3906 45.523C33.26 45.8403 33.078 46.118 32.8446 46.356C32.6113 46.5893 32.3336 46.7737 32.0116 46.909C31.6943 47.0443 31.349 47.112 30.9756 47.112ZM30.9756 46.216C31.209 46.216 31.426 46.174 31.6266 46.09C31.832 46.006 32.0093 45.8893 32.1586 45.74C32.3126 45.5907 32.4316 45.411 32.5156 45.201C32.6043 44.9863 32.6486 44.7507 32.6486 44.494C32.6486 44.2373 32.6043 44.004 32.5156 43.794C32.4316 43.5793 32.3126 43.3973 32.1586 43.248C32.0093 43.0987 31.832 42.982 31.6266 42.898C31.426 42.814 31.209 42.772 30.9756 42.772C30.7423 42.772 30.523 42.814 30.3176 42.898C30.117 42.982 29.9396 43.0987 29.7856 43.248C29.6363 43.3973 29.5173 43.5793 29.4286 43.794C29.3446 44.004 29.3026 44.2373 29.3026 44.494C29.3026 44.7507 29.3446 44.9863 29.4286 45.201C29.5173 45.411 29.6363 45.5907 29.7856 45.74C29.9396 45.8893 30.117 46.006 30.3176 46.09C30.523 46.174 30.7423 46.216 30.9756 46.216ZM34.3585 41.988H36.1855C36.4375 41.988 36.6662 42.0277 36.8715 42.107C37.0768 42.1863 37.2518 42.296 37.3965 42.436C37.5458 42.576 37.6602 42.744 37.7395 42.94C37.8188 43.1313 37.8585 43.3413 37.8585 43.57C37.8585 43.738 37.8305 43.8967 37.7745 44.046C37.7185 44.1907 37.6415 44.3237 37.5435 44.445C37.4455 44.5617 37.3312 44.6667 37.2005 44.76C37.0698 44.8487 36.9322 44.9187 36.7875 44.97L36.7805 45.019L38.1245 46.944V47H37.0395L35.7445 45.117H35.3035V47H34.3585V41.988ZM36.1785 44.249C36.3932 44.249 36.5682 44.1837 36.7035 44.053C36.8435 43.9223 36.9135 43.7567 36.9135 43.556C36.9135 43.4673 36.8972 43.381 36.8645 43.297C36.8365 43.213 36.7922 43.1383 36.7315 43.073C36.6708 43.0077 36.5938 42.9563 36.5005 42.919C36.4118 42.877 36.3092 42.856 36.1925 42.856H35.3035V44.249H36.1785ZM39.6443 42.884V44.046H41.6533V44.942H39.6443V46.104H41.8773V47H38.6993V41.988H41.8773V42.884H39.6443Z" fill="#637CF7"/>
</g>
<defs>
<linearGradient id="paint0_linear_14002_26578" x1="-8.5" y1="-9.5" x2="75" y2="79" gradientUnits="userSpaceOnUse">
<stop stop-color="#F8F9FF"/>
<stop offset="1" stop-color="#DBDEFE"/>
</linearGradient>
<linearGradient id="paint1_linear_14002_26578" x1="10.2305" y1="14.5007" x2="58.5413" y2="12.4833" gradientUnits="userSpaceOnUse">
<stop stop-color="#7088FF"/>
<stop offset="1" stop-color="#3A4991"/>
</linearGradient>
<linearGradient id="paint2_linear_14002_26578" x1="9.34375" y1="31.5158" x2="60.2457" y2="31.0865" gradientUnits="userSpaceOnUse">
<stop stop-color="#7088FF"/>
<stop offset="1" stop-color="#3A4991"/>
</linearGradient>
<linearGradient id="paint3_linear_14002_26578" x1="9.32617" y1="35.504" x2="60.2264" y2="34.9804" gradientUnits="userSpaceOnUse">
<stop stop-color="#7088FF"/>
<stop offset="1" stop-color="#3A4991"/>
</linearGradient>
<clipPath id="clip0_14002_26578">
<rect width="44.3129" height="44.3129" fill="white" transform="translate(9.34375 9.35938)"/>
</clipPath>
</defs>
</svg>
