<svg width="64" height="64" viewBox="0 0 64 64" fill="none" xmlns="http://www.w3.org/2000/svg">
<rect opacity="0.6" width="64" height="64" rx="12" fill="url(#paint0_linear_14002_27447)"/>
<g clip-path="url(#clip0_14002_27447)">
<path d="M51.089 10.2456H11.4994C10.7986 10.2456 10.2305 10.8137 10.2305 11.5146V17.4867C10.2305 18.1876 10.7986 18.7557 11.4994 18.7557H51.089C51.7898 18.7557 52.358 18.1876 52.358 17.4867V11.5146C52.358 10.8137 51.7898 10.2456 51.089 10.2456Z" fill="url(#paint1_linear_14002_27447)"/>
<path d="M12.5665 53.6723C10.7336 53.6723 9.34375 52.1214 9.34375 50.0668V12.1994C9.34375 10.7089 10.8746 9.35938 12.5665 9.35938H50.4339C52.0856 9.35938 53.6567 10.7391 53.6567 12.1994V37.2262C53.6567 37.6391 53.3143 37.9815 52.9014 37.9815C52.4884 37.9815 52.146 37.6391 52.146 37.2262V20.1053C52.146 19.7326 51.8439 19.4305 51.4713 19.4305H11.5292C11.3479 19.4305 11.1767 19.501 11.0558 19.6319C10.9249 19.7628 10.8544 19.924 10.8544 20.1053V50.0668C10.8544 51.3056 11.5594 52.1616 12.5665 52.1616H37.2105C37.6235 52.1616 37.9659 52.5041 37.9659 52.917C37.9659 53.3299 37.6235 53.6723 37.2105 53.6723H12.5665ZM12.5665 10.87C11.6299 10.87 10.935 11.6052 10.8645 12.1088V17.2451C10.8645 17.6177 11.1566 17.9198 11.5292 17.9198H51.4813C51.854 17.9198 52.1561 17.6177 52.1561 17.2451V12.1994C52.1561 12.1994 52.1561 12.1088 52.1561 12.0987C52.0856 11.6052 51.3806 10.8801 50.4541 10.8801H12.5665V10.87Z" fill="url(#paint2_linear_14002_27447)"/>
<path d="M15.8097 15.4625C15.2256 15.4625 14.7422 14.9791 14.7422 14.3949C14.7422 13.8108 15.2155 13.3274 15.8097 13.3274C16.4039 13.3274 16.8773 13.8108 16.8773 14.3949C16.8773 14.9791 16.4039 15.4625 15.8097 15.4625Z" fill="#F8F8FF"/>
<path d="M20.8849 15.4625C20.3008 15.4625 19.8174 14.9791 19.8174 14.3949C19.8174 13.8108 20.3008 13.3274 20.8849 13.3274C21.469 13.3274 21.9525 13.8108 21.9525 14.3949C21.9525 14.9791 21.4791 15.4625 20.8849 15.4625Z" fill="#F8F8FF"/>
<path d="M25.9709 15.4625C25.3867 15.4625 24.9033 14.9791 24.9033 14.3949C24.9033 13.8108 25.3867 13.3274 25.9709 13.3274C26.555 13.3274 27.0384 13.8108 27.0384 14.3949C27.0384 14.9791 26.5651 15.4625 25.9709 15.4625Z" fill="#F8F8FF"/>
<rect x="10.3262" y="18.3357" width="42.3129" height="34.3366" rx="3" fill="white" stroke="url(#paint3_linear_14002_27447)" stroke-width="2"/>
<path d="M24.1364 36.9209C24.1394 36.9802 24.1303 37.0394 24.1096 37.0951C24.089 37.1507 24.0572 37.2015 24.0163 37.2445C23.9754 37.2875 23.9261 37.3217 23.8716 37.345C23.817 37.3684 23.7583 37.3804 23.6989 37.3803H18.8733C18.6758 37.3806 18.484 37.3141 18.3291 37.1916C18.1742 37.069 18.0654 36.8977 18.0202 36.7055C17.992 36.5739 17.9933 36.4377 18.024 36.3066C18.0546 36.1756 18.1138 36.053 18.1974 35.9475C18.9693 34.9237 19.9936 34.1176 21.1702 33.608C20.6536 33.137 20.2575 32.5491 20.0148 31.8935C19.7722 31.238 19.6902 30.5338 19.7757 29.84C19.8611 29.1463 20.1116 28.4831 20.5061 27.906C20.9006 27.3289 21.4276 26.8548 22.043 26.5233C22.6584 26.1918 23.3443 26.0126 24.0432 26.0006C24.7422 25.9887 25.4338 26.1444 26.0601 26.4548C26.6865 26.7651 27.2294 27.221 27.6433 27.7843C28.0572 28.3476 28.3302 29.0019 28.4392 29.6923C28.4533 29.7852 28.4367 29.8801 28.3919 29.9626C28.3471 30.0451 28.2765 30.1108 28.191 30.1495C26.9773 30.7106 25.9495 31.6071 25.2288 32.7333C24.508 33.8594 24.1245 35.1682 24.1233 36.5053C24.1233 36.6453 24.1233 36.7831 24.1364 36.9209ZM44.0427 35.9464C43.2725 34.9238 42.2505 34.1182 41.0764 33.608C41.593 33.137 41.9892 32.5491 42.2318 31.8935C42.4744 31.238 42.5564 30.5338 42.4709 29.84C42.3855 29.1463 42.135 28.4831 41.7405 27.906C41.346 27.3289 40.819 26.8548 40.2036 26.5233C39.5882 26.1918 38.9023 26.0126 38.2034 26.0006C37.5044 25.9887 36.8128 26.1444 36.1865 26.4548C35.5601 26.7651 35.0172 27.221 34.6033 27.7843C34.1894 28.3476 33.9164 29.0019 33.8074 29.6923C33.7933 29.7852 33.8099 29.8801 33.8547 29.9626C33.8995 30.0451 33.9701 30.1108 34.0556 30.1495C35.2693 30.7106 36.2971 31.6071 37.0178 32.7333C37.7386 33.8594 38.1222 35.1682 38.1233 36.5053C38.1233 36.6453 38.1233 36.7831 38.1102 36.9209C38.1072 36.9802 38.1163 37.0394 38.137 37.0951C38.1576 37.1507 38.1894 37.2015 38.2303 37.2445C38.2712 37.2875 38.3205 37.3217 38.375 37.345C38.4296 37.3684 38.4883 37.3804 38.5477 37.3803H43.3733C43.5708 37.3806 43.7626 37.3141 43.9175 37.1916C44.0724 37.069 44.1813 36.8977 44.2264 36.7055C44.2547 36.5736 44.2534 36.4371 44.2226 36.3059C44.1918 36.1746 44.1322 36.0518 44.0481 35.9464H44.0427ZM34.3083 40.6692C35.1795 40.002 35.8198 39.0785 36.1391 38.0286C36.4583 36.9787 36.4406 35.8552 36.0884 34.8159C35.7361 33.7766 35.067 32.8738 34.1752 32.2344C33.2834 31.595 32.2136 31.2511 31.1162 31.2511C30.0188 31.2511 28.949 31.595 28.0572 32.2344C27.1653 32.8738 26.4963 33.7766 26.144 34.8159C25.7918 35.8552 25.774 36.9787 26.0933 38.0286C26.4126 39.0785 27.0529 40.002 27.9241 40.6692C26.3781 41.339 25.0872 42.4862 24.2403 43.9428C24.1635 44.0758 24.1231 44.2267 24.1231 44.3803C24.1231 44.534 24.1636 44.6849 24.2404 44.8179C24.3172 44.9509 24.4277 45.0614 24.5607 45.1381C24.6938 45.2149 24.8447 45.2553 24.9983 45.2553H37.2483C37.4019 45.2553 37.5528 45.2149 37.6859 45.1381C37.8189 45.0614 37.9294 44.9509 38.0062 44.8179C38.083 44.6849 38.1235 44.534 38.1235 44.3803C38.1235 44.2267 38.0831 44.0758 38.0063 43.9428C37.1576 42.4853 35.8643 41.338 34.316 40.6692H34.3083Z" fill="#637CF7"/>
<path d="M44.0426 35.9464C43.2724 34.9238 42.2505 34.1182 41.0764 33.608C41.5929 33.137 41.9891 32.5491 42.2317 31.8935C42.4743 31.238 42.5564 30.5338 42.4709 29.84C42.3854 29.1463 42.1349 28.4831 41.7404 27.906C41.346 27.3289 40.8189 26.8548 40.2035 26.5233C39.5881 26.1918 38.9022 26.0126 38.2033 26.0006C37.5044 25.9887 36.8128 26.1444 36.1864 26.4548C35.5601 26.7651 35.0172 27.221 34.6032 27.7843C34.1893 28.3476 33.9164 29.0019 33.8073 29.6923C33.7932 29.7852 33.8099 29.8801 33.8547 29.9626C33.8995 30.0451 33.97 30.1108 34.0556 30.1495C35.2692 30.7106 36.297 31.6071 37.0178 32.7333C37.7385 33.8594 38.1221 35.1682 38.1232 36.5053C38.1232 36.6453 38.1232 36.7831 38.1101 36.9209C38.1072 36.9802 38.1163 37.0394 38.1369 37.0951C38.1576 37.1507 38.1893 37.2015 38.2303 37.2445C38.2712 37.2875 38.3204 37.3217 38.375 37.345C38.4295 37.3684 38.4883 37.3804 38.5476 37.3803H43.3732C43.5707 37.3806 43.7625 37.3141 43.9174 37.1916C44.0723 37.069 44.1812 36.8977 44.2264 36.7055C44.2547 36.5736 44.2534 36.4371 44.2225 36.3059C44.1917 36.1746 44.1321 36.0518 44.0481 35.9464H44.0426ZM34.3082 40.6692C35.1795 40.002 35.8197 39.0785 36.139 38.0286C36.4583 36.9787 36.4406 35.8552 36.0883 34.8159C35.736 33.7766 35.067 32.8738 34.1751 32.2344C33.2833 31.595 32.2135 31.2511 31.1161 31.2511C30.0188 31.2511 28.949 31.595 28.0571 32.2344C27.1653 32.8738 26.4962 33.7766 26.144 34.8159C25.7917 35.8552 25.774 36.9787 26.0933 38.0286C26.4126 39.0785 27.0528 40.002 27.924 40.6692C26.378 41.339 25.0871 42.4862 24.2403 43.9428C24.1635 44.0758 24.123 44.2267 24.123 44.3803C24.1231 44.534 24.1635 44.6849 24.2403 44.8179C24.3171 44.9509 24.4276 45.0614 24.5607 45.1381C24.6937 45.2149 24.8446 45.2553 24.9982 45.2553H37.2482C37.4019 45.2553 37.5528 45.2149 37.6858 45.1381C37.8189 45.0614 37.9293 44.9509 38.0062 44.8179C38.083 44.6849 38.1234 44.534 38.1234 44.3803C38.1234 44.2267 38.083 44.0758 38.0062 43.9428C37.1575 42.4853 35.8642 41.338 34.3159 40.6692H34.3082Z" fill="#B1BDF7"/>
<path d="M44.0429 35.9464C43.2727 34.9238 42.2508 34.1182 41.0767 33.608C41.5932 33.137 41.9894 32.5491 42.232 31.8935C42.4747 31.238 42.5567 30.5338 42.4712 29.84C42.3857 29.1463 42.1352 28.4831 41.7408 27.906C41.3463 27.3289 40.8192 26.8548 40.2038 26.5233C39.5884 26.1918 38.9025 26.0126 38.2036 26.0006C37.5047 25.9887 36.8131 26.1444 36.1867 26.4548C35.5604 26.7651 35.0175 27.221 34.6035 27.7843C34.1896 28.3476 33.9167 29.0019 33.8076 29.6923C33.7935 29.7852 33.8102 29.8801 33.855 29.9626C33.8998 30.0451 33.9703 30.1108 34.0559 30.1495C35.2695 30.7106 36.2974 31.6071 37.0181 32.7333C37.7388 33.8594 38.1224 35.1682 38.1235 36.5053C38.1235 36.6453 38.1235 36.7831 38.1104 36.9209C38.1075 36.9802 38.1166 37.0394 38.1372 37.0951C38.1579 37.1507 38.1896 37.2015 38.2306 37.2445C38.2715 37.2875 38.3207 37.3217 38.3753 37.345C38.4298 37.3684 38.4886 37.3804 38.5479 37.3803H43.3735C43.571 37.3806 43.7628 37.3141 43.9177 37.1916C44.0726 37.069 44.1815 36.8977 44.2267 36.7055C44.255 36.5736 44.2537 36.4371 44.2228 36.3059C44.192 36.1746 44.1324 36.0518 44.0484 35.9464H44.0429Z" fill="#4254AC"/>
</g>
<defs>
<linearGradient id="paint0_linear_14002_27447" x1="-8.5" y1="-9.5" x2="75" y2="79" gradientUnits="userSpaceOnUse">
<stop stop-color="#F8F9FF"/>
<stop offset="1" stop-color="#DBDEFE"/>
</linearGradient>
<linearGradient id="paint1_linear_14002_27447" x1="10.2305" y1="14.5007" x2="58.5413" y2="12.4833" gradientUnits="userSpaceOnUse">
<stop stop-color="#7088FF"/>
<stop offset="1" stop-color="#3A4991"/>
</linearGradient>
<linearGradient id="paint2_linear_14002_27447" x1="9.34375" y1="31.5158" x2="60.2457" y2="31.0865" gradientUnits="userSpaceOnUse">
<stop stop-color="#7088FF"/>
<stop offset="1" stop-color="#3A4991"/>
</linearGradient>
<linearGradient id="paint3_linear_14002_27447" x1="9.32617" y1="35.504" x2="60.2264" y2="34.9804" gradientUnits="userSpaceOnUse">
<stop stop-color="#7088FF"/>
<stop offset="1" stop-color="#3A4991"/>
</linearGradient>
<clipPath id="clip0_14002_27447">
<rect width="44.3129" height="44.3129" fill="white" transform="translate(9.34375 9.35938)"/>
</clipPath>
</defs>
</svg>
