<svg width="64" height="64" viewBox="0 0 64 64" fill="none" xmlns="http://www.w3.org/2000/svg">
<rect opacity="0.6" width="64" height="64" rx="12" fill="url(#paint0_linear_14002_27325)"/>
<g clip-path="url(#clip0_14002_27325)">
<path d="M51.089 10.2456H11.4994C10.7986 10.2456 10.2305 10.8137 10.2305 11.5146V17.4867C10.2305 18.1876 10.7986 18.7557 11.4994 18.7557H51.089C51.7898 18.7557 52.358 18.1876 52.358 17.4867V11.5146C52.358 10.8137 51.7898 10.2456 51.089 10.2456Z" fill="url(#paint1_linear_14002_27325)"/>
<path d="M12.5665 53.6723C10.7336 53.6723 9.34375 52.1214 9.34375 50.0668V12.1994C9.34375 10.7089 10.8746 9.35938 12.5665 9.35938H50.4339C52.0856 9.35938 53.6567 10.7391 53.6567 12.1994V37.2262C53.6567 37.6391 53.3143 37.9815 52.9014 37.9815C52.4884 37.9815 52.146 37.6391 52.146 37.2262V20.1053C52.146 19.7326 51.8439 19.4305 51.4713 19.4305H11.5292C11.3479 19.4305 11.1767 19.501 11.0558 19.6319C10.9249 19.7628 10.8544 19.924 10.8544 20.1053V50.0668C10.8544 51.3056 11.5594 52.1616 12.5665 52.1616H37.2105C37.6235 52.1616 37.9659 52.5041 37.9659 52.917C37.9659 53.3299 37.6235 53.6723 37.2105 53.6723H12.5665ZM12.5665 10.87C11.6299 10.87 10.935 11.6052 10.8645 12.1088V17.2451C10.8645 17.6177 11.1566 17.9198 11.5292 17.9198H51.4813C51.854 17.9198 52.1561 17.6177 52.1561 17.2451V12.1994C52.1561 12.1994 52.1561 12.1088 52.1561 12.0987C52.0856 11.6052 51.3806 10.8801 50.4541 10.8801H12.5665V10.87Z" fill="url(#paint2_linear_14002_27325)"/>
<path d="M15.8097 15.4625C15.2256 15.4625 14.7422 14.9791 14.7422 14.3949C14.7422 13.8108 15.2155 13.3274 15.8097 13.3274C16.4039 13.3274 16.8773 13.8108 16.8773 14.3949C16.8773 14.9791 16.4039 15.4625 15.8097 15.4625Z" fill="#F8F8FF"/>
<path d="M20.8849 15.4625C20.3008 15.4625 19.8174 14.9791 19.8174 14.3949C19.8174 13.8108 20.3008 13.3274 20.8849 13.3274C21.469 13.3274 21.9525 13.8108 21.9525 14.3949C21.9525 14.9791 21.4791 15.4625 20.8849 15.4625Z" fill="#F8F8FF"/>
<path d="M25.9709 15.4625C25.3867 15.4625 24.9033 14.9791 24.9033 14.3949C24.9033 13.8108 25.3867 13.3274 25.9709 13.3274C26.555 13.3274 27.0384 13.8108 27.0384 14.3949C27.0384 14.9791 26.5651 15.4625 25.9709 15.4625Z" fill="#F8F8FF"/>
<rect x="10.3262" y="18.3357" width="42.3129" height="34.3366" rx="3" fill="white" stroke="url(#paint3_linear_14002_27325)" stroke-width="2"/>
<path d="M37.8408 46.6615C37.8396 46.8746 37.7562 47.0748 37.6062 47.225L36.9789 47.853C36.8267 48.0053 36.6243 48.0884 36.4091 48.0868C36.1997 48.0854 36.0038 48.0032 35.8575 47.8559L31.1858 43.1503C31.1839 43.1522 31.1821 43.1541 31.1797 43.1557C29.8567 44.1205 28.2599 44.6378 26.6317 44.6378C26.4465 44.6378 26.2612 44.6312 26.0756 44.6176C24.2384 44.4843 22.5129 43.6901 21.217 42.3815C19.7731 40.9238 18.9859 38.9837 19.0002 36.9191C19.0147 34.8548 19.8287 32.9127 21.2925 31.4511C22.5031 30.2427 24.0318 29.4821 25.7134 29.2516C25.8662 29.2307 26.0172 29.2725 26.1383 29.3692C26.26 29.4666 26.3348 29.606 26.3486 29.7616C26.3757 30.0636 26.1638 30.3319 25.866 30.3722C24.4247 30.5673 23.1164 31.2159 22.0822 32.2483C19.5015 34.8252 19.4721 39.0125 22.0167 41.5824C23.2451 42.8229 24.8874 43.5059 26.6417 43.5059H26.6508C28.4086 43.5035 30.064 42.8159 31.3122 41.5695C32.1459 40.737 32.7451 39.6971 33.045 38.5622C33.336 37.4605 33.3406 36.2974 33.0581 35.1986C32.9957 34.9564 33.0973 34.706 33.311 34.5755C33.4673 34.48 33.6517 34.4652 33.8191 34.5335C33.985 34.6013 34.1058 34.7398 34.1505 34.9132C34.4279 35.993 34.4678 37.1463 34.2666 38.2486C34.0586 39.3871 33.612 40.4406 32.9394 41.3801C32.9377 41.3824 32.9356 41.3845 32.9337 41.3864L37.6122 46.099C37.7606 46.2485 37.8417 46.4482 37.8406 46.6613L37.8408 46.6615Z" fill="#4254AC" stroke="#4254AC" stroke-width="0.5"/>
<path fill-rule="evenodd" clip-rule="evenodd" d="M27.1465 38.5082C27.0589 37.8998 27.0298 37.1252 26.5845 36.6431C26.1091 36.1286 24.9553 36.109 24.6842 36.0455C24.5933 36.0246 24.5927 35.9637 24.6875 35.9437C24.7362 35.9336 24.7977 35.9326 24.8268 35.9297C24.9258 35.9182 25.0226 35.9061 25.1191 35.8924C25.462 35.8456 25.8384 35.7778 26.1499 35.6423C26.4821 35.497 26.6989 35.2804 26.8434 34.9476C26.9791 34.6363 27.0464 34.2597 27.0932 33.916C27.1066 33.8192 27.1187 33.7226 27.1301 33.6235C27.1337 33.5947 27.1347 33.5332 27.1452 33.4837C27.1648 33.3895 27.2256 33.3901 27.2465 33.4811C27.31 33.7521 27.3296 34.9067 27.8439 35.3832C28.3248 35.8289 29.0984 35.858 29.7065 35.9457C29.7925 35.9578 29.8141 36.0279 29.7108 36.0488C29.5807 36.0756 29.3024 36.1002 29.2128 36.1133C27.873 36.3093 27.5097 36.6735 27.3136 38.0143C27.3005 38.1037 27.2753 38.3825 27.2492 38.5127C27.2282 38.6161 27.1589 38.5949 27.1462 38.5085L27.1465 38.5082Z" fill="#637CF7"/>
<path fill-rule="evenodd" clip-rule="evenodd" d="M39.776 30.727C39.971 30.2797 40.068 29.7381 40.1355 29.2452C40.1549 29.106 40.1722 28.9668 40.1889 28.8248C40.1938 28.7827 40.1948 28.6941 40.2096 28.624C40.2382 28.4879 40.3255 28.4889 40.356 28.6193C40.4464 29.0089 40.4748 30.6681 41.2147 31.3524C41.9064 31.9927 43.019 32.0348 43.8941 32.1606C44.0181 32.1784 44.0487 32.2789 43.9003 32.3091C43.7131 32.347 43.3126 32.3829 43.1839 32.4017C41.2573 32.6835 40.734 33.2066 40.4523 35.1335C40.4335 35.2619 40.3973 35.6626 40.3594 35.8496C40.3292 35.9981 40.2292 35.9678 40.2111 35.8432C40.0851 34.9683 40.0431 33.8556 39.4031 33.164C38.7186 32.424 37.0596 32.3955 36.6699 32.305C36.5395 32.2747 36.5385 32.1875 36.6744 32.159C36.7444 32.1443 36.8332 32.1431 36.8753 32.1382C37.0171 32.1216 37.1565 32.1043 37.2954 32.0849C37.7884 32.0172 38.3299 31.92 38.7774 31.7253C39.2556 31.5169 39.5673 31.2054 39.7757 30.727H39.776Z" fill="#4254AC"/>
<path fill-rule="evenodd" clip-rule="evenodd" d="M31.7577 31.2754C31.5981 30.1673 31.5452 28.7578 30.735 27.8814C29.8685 26.9441 27.7689 26.9081 27.2758 26.7933C27.111 26.755 27.1094 26.644 27.2817 26.608C27.3703 26.589 27.4824 26.5881 27.5361 26.5815C27.7156 26.5606 27.8918 26.5383 28.0677 26.5138C28.6915 26.428 29.3771 26.305 29.9431 26.0586C30.5486 25.7941 30.9429 25.3998 31.2064 24.7934C31.453 24.2269 31.5756 23.5409 31.6619 22.9162C31.6861 22.7398 31.7083 22.5641 31.7292 22.3841C31.7354 22.3307 31.7367 22.2185 31.7554 22.1295C31.7917 21.9573 31.9022 21.9583 31.9408 22.1236C32.0555 22.6171 32.0912 24.7191 33.0276 25.586C33.9031 26.3973 35.3113 26.4506 36.4187 26.61C36.576 26.6326 36.6145 26.7595 36.4265 26.7975C36.1898 26.8456 35.6827 26.8911 35.5199 26.915C33.0815 27.2717 32.4194 27.9347 32.0627 30.3754C32.0388 30.5384 31.9934 31.046 31.9453 31.2826C31.9071 31.4708 31.7802 31.4325 31.7577 31.2747V31.2754Z" fill="#B1BDF7"/>
</g>
<defs>
<linearGradient id="paint0_linear_14002_27325" x1="-8.5" y1="-9.5" x2="75" y2="79" gradientUnits="userSpaceOnUse">
<stop stop-color="#F8F9FF"/>
<stop offset="1" stop-color="#DBDEFE"/>
</linearGradient>
<linearGradient id="paint1_linear_14002_27325" x1="10.2305" y1="14.5007" x2="58.5413" y2="12.4833" gradientUnits="userSpaceOnUse">
<stop stop-color="#7088FF"/>
<stop offset="1" stop-color="#3A4991"/>
</linearGradient>
<linearGradient id="paint2_linear_14002_27325" x1="9.34375" y1="31.5158" x2="60.2457" y2="31.0865" gradientUnits="userSpaceOnUse">
<stop stop-color="#7088FF"/>
<stop offset="1" stop-color="#3A4991"/>
</linearGradient>
<linearGradient id="paint3_linear_14002_27325" x1="9.32617" y1="35.504" x2="60.2264" y2="34.9804" gradientUnits="userSpaceOnUse">
<stop stop-color="#7088FF"/>
<stop offset="1" stop-color="#3A4991"/>
</linearGradient>
<clipPath id="clip0_14002_27325">
<rect width="44.3129" height="44.3129" fill="white" transform="translate(9.34375 9.35938)"/>
</clipPath>
</defs>
</svg>
