<svg width="21" height="20" viewBox="0 0 21 20" fill="none" xmlns="http://www.w3.org/2000/svg">
<g opacity="0.8">
<path d="M10.4996 12.5623C10.4163 12.5623 10.3399 12.5485 10.2705 12.5207C10.201 12.4929 10.1316 12.4443 10.0621 12.3748L5.93714 8.24984C5.82603 8.13873 5.77394 7.98943 5.78089 7.80193C5.78783 7.61443 5.84686 7.46512 5.95797 7.35401C6.09686 7.21512 6.24616 7.15609 6.40589 7.17693C6.56561 7.19776 6.70797 7.26373 6.83297 7.37484L10.4996 11.0415L14.1663 7.37484C14.2774 7.26373 14.4267 7.20123 14.6142 7.18734C14.8017 7.17346 14.951 7.23596 15.0621 7.37484C15.201 7.48596 15.2601 7.63179 15.2392 7.81234C15.2184 7.9929 15.1524 8.14568 15.0413 8.27068L10.9371 12.3748C10.8677 12.4443 10.7982 12.4929 10.7288 12.5207C10.6594 12.5485 10.583 12.5623 10.4996 12.5623Z" fill="#307DF6"/>
</g>
</svg>
